<?xml version="1.0" standalone="no"?>
<!DOCTYPE svg PUBLIC "-//W3C//DTD SVG 20010904//EN"
 "http://www.w3.org/TR/2001/REC-SVG-20010904/DTD/svg10.dtd">
<svg version="1.0" xmlns="http://www.w3.org/2000/svg"
 width="126.000000pt" height="126.000000pt" viewBox="0 0 126.000000 126.000000"
 preserveAspectRatio="xMidYMid meet">
<metadata>
Created by potrace 1.11, written by Peter Selinger 2001-2013
</metadata>
<g transform="translate(0.000000,126.000000) scale(0.100000,-0.100000)"
fill="#000000" stroke="none">
<path d="M541 1109 c-39 -15 -13 -26 81 -33 92 -6 114 2 76 28 -25 18 -118 21
-157 5z"/>
<path d="M485 1050 c-98 -21 -265 -113 -265 -146 0 -19 4 -18 51 11 111 71
299 107 451 86 93 -12 263 -63 353 -106 27 -14 53 -21 58 -16 8 8 -99 65 -208
110 -126 52 -344 82 -440 61z"/>
<path d="M518 960 c-85 -14 -200 -65 -276 -124 -65 -51 -162 -159 -162 -182 0
-15 64 -109 115 -168 54 -63 166 -146 243 -180 165 -72 352 -52 511 56 98 67
251 247 251 296 0 29 -119 152 -200 207 -97 64 -193 94 -323 100 -56 2 -128 0
-159 -5z m334 -81 c118 -30 186 -68 252 -140 31 -34 56 -71 56 -81 0 -20 -83
-143 -115 -170 -138 -118 -320 -175 -483 -149 -106 16 -217 63 -296 124 -45
36 -156 172 -156 192 0 22 132 151 180 175 25 13 81 34 125 46 113 31 322 33
437 3z"/>
<path d="M555 827 c-83 -38 -145 -131 -145 -218 0 -84 63 -173 148 -210 58
-25 117 -24 177 5 93 44 140 121 133 221 -4 73 -34 124 -100 178 -32 26 -47
30 -110 34 -48 2 -83 -1 -103 -10z m89 -51 c-7 -18 14 -58 27 -51 5 4 9 19 9
35 0 23 3 27 20 23 19 -5 19 -7 5 -23 -16 -18 -21 -50 -7 -50 5 0 15 11 22 25
14 25 34 33 45 16 3 -6 -3 -15 -14 -20 -24 -13 -35 -41 -16 -41 7 0 20 7 29
15 20 21 23 19 42 -17 20 -39 15 -134 -9 -172 l-18 -26 -29 22 c-38 28 -54 14
-18 -17 l27 -23 -24 -16 c-24 -16 -25 -15 -25 3 0 26 -10 51 -21 51 -13 0 -11
-44 2 -57 7 -7 6 -12 -5 -16 -11 -5 -16 -1 -16 12 0 27 -10 51 -22 51 -6 0 -8
-16 -6 -35 4 -31 2 -35 -20 -35 -15 0 -22 5 -19 13 17 45 18 57 5 57 -8 0 -19
-14 -25 -31 -11 -28 -15 -30 -28 -19 -14 12 -13 15 6 36 30 32 20 51 -14 24
-16 -12 -24 -27 -20 -33 4 -7 -1 -5 -12 3 -10 8 -26 33 -36 55 -31 68 -22 144
23 192 l20 22 22 -26 c14 -16 27 -23 35 -19 9 6 5 16 -14 36 -27 28 -27 28 -5
35 12 4 23 5 24 3 1 -1 7 -15 14 -30 6 -16 16 -28 22 -28 13 0 13 12 0 44 -8
22 -7 26 10 26 13 0 17 -5 14 -14z"/>
<path d="M598 694 c-83 -45 -52 -174 42 -174 68 0 113 79 80 141 -11 20 -60
49 -82 49 -7 -1 -25 -7 -40 -16z m36 -70 c8 -21 -1 -34 -23 -34 -25 0 -32 10
-20 31 12 23 35 25 43 3z"/>
<path d="M490 680 c0 -12 45 -24 60 -15 5 3 8 11 5 16 -8 12 -65 12 -65 -1z"/>
<path d="M773 677 c-13 -5 -23 -14 -23 -19 0 -15 40 -9 47 7 8 22 2 24 -24 12z"/>
<path d="M477 634 c-10 -11 3 -24 24 -24 10 0 19 7 19 15 0 15 -31 21 -43 9z"/>
<path d="M767 623 c-14 -13 -6 -23 18 -23 16 0 25 6 25 15 0 15 -31 21 -43 8z"/>
<path d="M493 583 c-7 -2 -13 -9 -13 -15 0 -14 43 -6 48 10 4 12 -12 15 -35 5z"/>
<path d="M736 561 c-7 -10 17 -21 45 -21 10 0 19 7 19 15 0 17 -55 22 -64 6z"/>
<path d="M505 544 c-9 -9 -13 -19 -10 -22 7 -7 55 19 55 30 0 14 -28 9 -45 -8z"/>
<path d="M1026 329 c-22 -12 -78 -34 -125 -49 -222 -71 -397 -64 -571 23 -83
41 -95 27 -22 -26 61 -43 161 -83 232 -91 100 -12 281 23 400 76 104 47 150
70 155 79 10 16 -28 9 -69 -12z"/>
<path d="M587 163 c-73 -6 -54 -27 27 -31 64 -3 96 7 96 29 0 9 -27 9 -123 2z"/>
</g>
</svg>
