<svg id="Layer_1" data-name="Layer 1" xmlns="http://www.w3.org/2000/svg" viewBox="0 0 400.36 207.08"><defs><style>.cls-1{fill:#88c7a0;}.cls-2{fill:#fff;}.cls-3{fill:#1d1d1b;}</style></defs><title>all_seeing_eye</title><polygon class="cls-1" points="200.18 0 0 103.54 200.18 207.08 400.36 103.54 200.18 0"/><path class="cls-2" d="M206.22,154.93l2.89,0h1.28l2.89,0v-.19c27.58-2.14,54.18-20,70.65-47.69l-.44-.69a82.59,82.59,0,0,0-48.56-33.93,95.4,95.4,0,0,0-25.17-2.6,95.4,95.4,0,0,0-25.17,2.6A82.59,82.59,0,0,0,136,106.36l-.44.69c16.46,27.7,43.06,45.55,70.65,47.69Zm-24-43.19a27.57,27.57,0,1,1,27.57,27.57A27.57,27.57,0,0,1,182.19,111.74Z" transform="translate(-9.58 -6.72)"/><path class="cls-3" d="M209.76,141.64a29.89,29.89,0,1,0-29.89-29.89A29.93,29.93,0,0,0,209.76,141.64Zm0-55.14a24.68,24.68,0,0,1,2.66.27,7.29,7.29,0,0,0-.93,2.47,10.81,10.81,0,0,0-.19,2.49,10.68,10.68,0,0,0,.43,2.46A7.15,7.15,0,0,0,213,96.61h.16l-.17-5-.32-4.86a24.27,24.27,0,1,1-2.86-.29Z" transform="translate(-9.58 -6.72)"/><circle class="cls-3" cx="200.01" cy="105.02" r="11.53"/><path class="cls-3" d="M193.24,117.4a3.64,3.64,0,0,0,1.09-1.43l0-.16-2.78.67-2.73.82,0,.16a3.66,3.66,0,0,0,1.66.68,3.74,3.74,0,0,0,1.46-.07A3.65,3.65,0,0,0,193.24,117.4Z" transform="translate(-9.58 -6.72)"/><path class="cls-3" d="M197.15,119.79l-.09-.14a5,5,0,0,0-2.2.08,6.17,6.17,0,0,0-3.28,2,5,5,0,0,0-1.07,1.94l.09.14,3.32-1.94Z" transform="translate(-9.58 -6.72)"/><path class="cls-3" d="M197.21,126.68l-3.29,3.41.12.12a6.75,6.75,0,0,0,2.45-.91,9.77,9.77,0,0,0,1.89-1.46,9.6,9.6,0,0,0,1.46-1.89,6.68,6.68,0,0,0,.9-2.45l-.12-.12Z" transform="translate(-9.58 -6.72)"/><path class="cls-3" d="M205.07,126.09l-1.94,4.59-1.78,4.65.15.06a7.27,7.27,0,0,0,1.94-1.9,11,11,0,0,0,1.22-2.19,10.8,10.8,0,0,0,.65-2.42,7.14,7.14,0,0,0-.08-2.72Z" transform="translate(-9.58 -6.72)"/><path class="cls-3" d="M211.71,129a7.16,7.16,0,0,0-1.42-2.31l-.16,0,.59,4.92.75,4.9.16,0a7.18,7.18,0,0,0,.74-2.61,10.85,10.85,0,0,0,0-2.5A10.73,10.73,0,0,0,211.71,129Z" transform="translate(-9.58 -6.72)"/><path class="cls-3" d="M218.09,130.12a10.23,10.23,0,0,0-1.07-2.21,7,7,0,0,0-1.82-2L215,126l1.49,4.65,1.64,4.59.15-.06a7,7,0,0,0,.25-2.66A10.52,10.52,0,0,0,218.09,130.12Z" transform="translate(-9.58 -6.72)"/><path class="cls-3" d="M223.56,125.71a11.17,11.17,0,0,0-2.16-1.32,7.25,7.25,0,0,0-2.65-.71l-.1.13,3.89,3.19,4,3.06.1-.13a7.37,7.37,0,0,0-1.3-2.42A11.28,11.28,0,0,0,223.56,125.71Z" transform="translate(-9.58 -6.72)"/><path class="cls-3" d="M227.21,118.22a9.53,9.53,0,0,0-2.34,0,6.5,6.5,0,0,0-2.43.83l0,.16,4.61.6,4.62.44,0-.16a6.52,6.52,0,0,0-2.18-1.34A9.5,9.5,0,0,0,227.21,118.22Z" transform="translate(-9.58 -6.72)"/><path class="cls-3" d="M229,110.12a4.62,4.62,0,0,0-1.59.38,4.07,4.07,0,0,0-1.55,1.16v.16l3.2-.07,3.2-.23v-.16a4.07,4.07,0,0,0-1.65-1A4.64,4.64,0,0,0,229,110.12Z" transform="translate(-9.58 -6.72)"/><path class="cls-3" d="M224.65,105.84l.07.15a5,5,0,0,0,2.21.11,6.13,6.13,0,0,0,3.44-1.72,5,5,0,0,0,1.23-1.84l-.07-.15L228,104Z" transform="translate(-9.58 -6.72)"/><path class="cls-3" d="M221.49,102l3.68-3,3.57-3.12-.11-.12a6.72,6.72,0,0,0-2.51.69,9.2,9.2,0,0,0-3.63,3,6.67,6.67,0,0,0-1.11,2.36Z" transform="translate(-9.58 -6.72)"/><path class="cls-3" d="M217.29,98.88l2.32-4.41L221.79,90l-.15-.08a7.29,7.29,0,0,0-2.09,1.73,11,11,0,0,0-1.4,2.08,10.61,10.61,0,0,0-.85,2.36,7.16,7.16,0,0,0-.15,2.71Z" transform="translate(-9.58 -6.72)"/><path class="cls-3" d="M205.54,94.84a7,7,0,0,0,1.64,2.11l.16,0-1.08-4.75L205,87.44l-.16,0a7,7,0,0,0-.48,2.63,10.45,10.45,0,0,0,.28,2.44A10.26,10.26,0,0,0,205.54,94.84Z" transform="translate(-9.58 -6.72)"/><path class="cls-3" d="M197.6,96.74a10.93,10.93,0,0,0,2,1.5,7.32,7.32,0,0,0,2.58.93l.11-.12-3.61-3.51L195,92.15l-.11.12A7.36,7.36,0,0,0,196,94.78,11.3,11.3,0,0,0,197.6,96.74Z" transform="translate(-9.58 -6.72)"/><path class="cls-3" d="M194.16,104.4a9.44,9.44,0,0,0,2.34.16,6.54,6.54,0,0,0,2.49-.62l0-.16-4.54-1-4.57-.84,0,.16a6.49,6.49,0,0,0,2.07,1.52A9.4,9.4,0,0,0,194.16,104.4Z" transform="translate(-9.58 -6.72)"/><path class="cls-3" d="M190.64,110.85a4.53,4.53,0,0,0,1.61-.24,4,4,0,0,0,1.65-1v-.16l-3.2-.21-3.21,0v.16a4.08,4.08,0,0,0,1.56,1.15A4.66,4.66,0,0,0,190.64,110.85Z" transform="translate(-9.58 -6.72)"/><path class="cls-3" d="M182.83,61.12a105,105,0,0,1,31.33-3,131.61,131.61,0,0,1,31.39,6.38,252.43,252.43,0,0,1,30.33,12.07l.18-.45a256.3,256.3,0,0,0-29.86-14,135,135,0,0,0-31.78-8c-10.85-1.21-22.06-1.08-32.71,2.18S161,65.24,153.36,73.73l.28.39A87,87,0,0,1,182.83,61.12Z" transform="translate(-9.58 -6.72)"/><path class="cls-3" d="M200.61,47.94c2.1.1,4.17.25,6.19.51s3.92,1.12,5.87,1.21a44.64,44.64,0,0,0,6.32.13l.2-.44a10.8,10.8,0,0,0-5.62-4.49c-2.19-.89-4.53-.49-6.71-.34a41.38,41.38,0,0,0-6.46,1c-2.1.52-4.17,1-6.22,1.72l.06.49C196.39,47.81,198.51,47.8,200.61,47.94Z" transform="translate(-9.58 -6.72)"/><path class="cls-3" d="M138.4,112c1.26,1.8,2.47,3.64,3.74,5.43,2.58,3.55,5.32,7,8.23,10.24,1.46,1.62,2.93,3.25,4.5,4.76l2.32,2.32,2.43,2.18c.82.72,1.62,1.47,2.46,2.15l2.56,2c1.68,1.4,3.5,2.56,5.28,3.81s3.67,2.28,5.52,3.43,3.84,2,5.78,2.93a75.33,75.33,0,0,0,12.16,4.29l3.13.78c1.05.23,2.15.36,3.23.55s2.19.38,3.22.47l3.07.26.24,0,3.49.15,3.49-.15.24,0,3.07-.26c1-.1,2.15-.32,3.22-.47s2.18-.32,3.23-.55l3.13-.78a75.35,75.35,0,0,0,12.16-4.29c1.94-1,3.88-1.89,5.78-2.93s3.75-2.16,5.52-3.43,3.6-2.42,5.28-3.81l2.56-2c.85-.68,1.64-1.44,2.46-2.15l2.43-2.18,2.32-2.32c1.57-1.51,3-3.14,4.5-4.76,2.91-3.27,5.64-6.69,8.23-10.24,1.27-1.79,2.48-3.63,3.74-5.43s2.31-3.76,3.46-5.64l.13-.2-.07-.11.06-.09h0l0,0,0,0h-.06c-.15-.21-1-1.4-2.37-3.09a78.06,78.06,0,0,0-5.9-7.43l-2-2.39c-.71-.76-1.48-1.45-2.21-2.18l-2.23-2.17a22.33,22.33,0,0,0-2.28-2.11l-4.77-4L257.8,79l-1.27-.89-1.33-.77-2.67-1.54c-.89-.51-1.77-1.05-2.69-1.52L247.06,73a51.75,51.75,0,0,0-5.66-2.38c-2-.66-3.77-1.42-5.89-2l-5.77-1.41c-2-.39-4.06-.64-6.09-1a24.17,24.17,0,0,0-3-.31l-3-.19a56.31,56.31,0,0,0-6.06-.06c-.6,0-1.19.06-1.79.08s-1.19-.09-1.79-.08a56.31,56.31,0,0,0-6.06.06l-3,.19a24.17,24.17,0,0,0-3,.31c-2,.32-4.09.56-6.09,1L184,68.65c-2.11.53-3.92,1.3-5.89,2A51.81,51.81,0,0,0,172.44,73l-2.78,1.3c-.91.47-1.79,1-2.69,1.52l-2.67,1.54-1.33.77L161.7,79l-5.05,3.56-4.77,4a22.29,22.29,0,0,0-2.28,2.11l-2.23,2.17c-.74.73-1.5,1.43-2.21,2.18l-2,2.39a112.29,112.29,0,0,0-7.7,9.88h0l-.4.63h0l0,0,0,0-.13.2.13.2C136.1,108.26,137.22,110.16,138.4,112Zm15.13-24.54,4.25-2.93L163,81.67l1.3-.71,1.36-.59,2.7-1.17c.9-.38,1.79-.8,2.7-1.15l2.77-.92a89,89,0,0,1,11.1-3l5.84-1,5.65-.59c1.86-.26,3.81-.21,5.72-.33,1,0,1.91-.14,2.87-.12l1.26,0h7l1.26,0c1,0,1.91.1,2.87.12,1.9.12,3.86.07,5.72.33l5.65.59,5.84,1a89,89,0,0,1,11.1,3l2.77.92c.91.34,1.8.76,2.7,1.15l2.7,1.17,1.36.59,1.3.71,5.21,2.87L266.65,88c2.81,2.56,14.08,15.36,14.08,18s-11.59,18.27-14.23,21.42a45.37,45.37,0,0,1-3.43,3l-2.46,2L258,134.16c-.86.59-1.69,1.23-2.57,1.78l-2.64,1.64c-1.73,1.14-3.58,2-5.38,3s-3.69,1.74-5.52,2.62-3.75,1.53-5.62,2.26a92.81,92.81,0,0,1-11.52,3.24l-2.92.57c-1,.19-1.92.27-2.88.42s-1.88.29-2.9.37l-2.87.17h0c-.3,0-.6,0-.89,0l-2.6.05-2.6-.05c-.3,0-.6,0-.89,0h0l-2.87-.17c-1-.07-1.93-.25-2.9-.37s-1.91-.23-2.88-.42l-2.92-.57a92.81,92.81,0,0,1-11.52-3.24c-1.87-.73-3.76-1.46-5.62-2.26s-3.73-1.62-5.52-2.62-3.65-1.89-5.38-3L164,135.94c-.88-.56-1.71-1.19-2.57-1.78l-2.55-1.82-2.46-2c-1-.74-1.88-1.61-2.8-2.45-1.55-1.83-16-19.51-16-22S151.57,89.24,153.53,87.48Z" transform="translate(-9.58 -6.72)"/><path class="cls-3" d="M270.67,146.71a231.18,231.18,0,0,1-27.77,11.05,120.5,120.5,0,0,1-28.74,5.84,96.15,96.15,0,0,1-28.69-2.77,79.64,79.64,0,0,1-26.72-11.9l-.26.35a56.87,56.87,0,0,0,26,15.91c9.75,3,20,3.1,29.94,2a123.56,123.56,0,0,0,29.09-7.28,234.63,234.63,0,0,0,27.34-12.78Z" transform="translate(-9.58 -6.72)"/><path class="cls-3" d="M213.63,175.71a9.89,9.89,0,0,0,5.15-4.11l-.19-.4a41,41,0,0,0-5.79.12c-1.78.08-3.51.87-5.38,1.11s-3.75.37-5.67.47-3.86.12-5.82.22l-.05.45c1.87.62,3.77,1.1,5.69,1.58a37.86,37.86,0,0,0,5.91.89C209.48,176.16,211.62,176.53,213.63,175.71Z" transform="translate(-9.58 -6.72)"/><circle class="cls-2" cx="196.14" cy="105.02" r="4.46"/><circle class="cls-2" cx="206.74" cy="102.7" r="1.81"/><path class="cls-3" d="M210.13,12.88l-.36-.18L17.89,110.27,209.4,207.65l.36.18,191.87-97.57ZM21.56,110.27l188.2-95.71L398,110.27,209.76,206Z" transform="translate(-9.58 -6.72)"/></svg>