<svg xmlns="http://www.w3.org/2000/svg" viewBox="0 0 246.78 122.16">
  <defs>
    <style>
      .cls-1{fill:#7cdfa8;}.cls-2{fill:#fff;}.cls-3{fill:#2e2a25;}.cls-4{fill:#231f20;}
    </style>
  </defs>
  <g id="Layer_2" data-name="Layer 2">
    <g id="ARTWORK">
      <path d="M0 61.08L123.39 0l123.39 61.08-123.39 61.08L0 61.08z" class="cls-1"/>
      <path d="M95.55 75.68a1.63 1.63 0 0 0 .87-.67 2.19 2.19 0 0 0 .27-1.15v-.32a1.92 1.92 0 0 0-.62-1.54 3.14 3.14 0 0 0-2-.52h-2.69v9h2.79a3.16 3.16 0 0 0 2-.55 1.93 1.93 0 0 0 .68-1.59v-.74a2.33 2.33 0 0 0-.3-1.22 1.7 1.7 0 0 0-1-.7zm-2.39-2.93H94a.93.93 0 0 1 .69.22 1 1 0 0 1 .22.71v.5a.87.87 0 0 1-.28.75 1.31 1.31 0 0 1-.78.21h-.69zm1.94 5.57a.87.87 0 0 1-.23.7 1.05 1.05 0 0 1-.69.19h-1v-2.78h.79a1.33 1.33 0 0 1 .88.23 1.12 1.12 0 0 1 .27.87zm2.84 2.18h4.84v-1.29h-3.07v-2.65h2.44v-1.29h-2.44v-2.52h3.07v-1.29h-4.84v9.04zm8.62-1.67l-1.36-7.37h-1.79l1.74 9.04h2.65l1.75-9.04h-1.63l-1.36 7.37zm3.81 1.67h4.84v-1.29h-3.07v-2.65h2.44v-1.29h-2.44v-2.52h3.07v-1.29h-4.84v9.04zm11.27-1.1V78a2.68 2.68 0 0 0-.25-1.21 1.49 1.49 0 0 0-.93-.72 1.76 1.76 0 0 0 1.16-1.83v-.71A1.91 1.91 0 0 0 121 72a3.13 3.13 0 0 0-2-.52h-2.68v9h1.78v-3.66h.61a1.27 1.27 0 0 1 .89.26 1.19 1.19 0 0 1 .27.89v1.87a1.88 1.88 0 0 0 0 .3 1.12 1.12 0 0 0 .06.19l.06.17h1.81a1.57 1.57 0 0 1-.16-.51 4.64 4.64 0 0 1 0-.59zm-1.79-4.83a.87.87 0 0 1-.28.75 1.31 1.31 0 0 1-.78.21h-.69v-2.78h.86a.93.93 0 0 1 .69.22 1 1 0 0 1 .22.71zm4.29-3.11l-1.81 9H124l.31-1.64h2.18l.31 1.64h1.79l-1.81-9zm.36 6.18l.86-4.57.86 4.57zm7.36-6.29a2.91 2.91 0 0 0-2 .59 2.12 2.12 0 0 0-.67 1.69v4.7a2.12 2.12 0 0 0 .67 1.69 3.63 3.63 0 0 0 4 0 2.13 2.13 0 0 0 .67-1.69v-2.87H132v1.29h.81v1.67a.82.82 0 0 1-.25.68 1.25 1.25 0 0 1-1.34 0 .82.82 0 0 1-.25-.68v-4.88a.84.84 0 0 1 .25-.69 1.22 1.22 0 0 1 1.34 0 .84.84 0 0 1 .25.69v1h1.68v-.88a2.13 2.13 0 0 0-.67-1.69 2.92 2.92 0 0 0-1.96-.62zm3.8 9.15h4.84v-1.29h-3.07v-2.65h2.44v-1.29h-2.44v-2.52h3.07v-1.29h-4.84v9.04zm10.94-9.15a2.92 2.92 0 0 0-2 .59 2.12 2.12 0 0 0-.67 1.69v4.7a2.12 2.12 0 0 0 .67 1.69 3.63 3.63 0 0 0 4 0 2.12 2.12 0 0 0 .67-1.69v-1.2h-1.68v1.29a.82.82 0 0 1-.25.68 1.25 1.25 0 0 1-1.34 0 .82.82 0 0 1-.25-.68v-4.88a.84.84 0 0 1 .25-.69 1.22 1.22 0 0 1 1.34 0 .84.84 0 0 1 .25.69v1h1.68v-.88a2.12 2.12 0 0 0-.67-1.69 2.92 2.92 0 0 0-2-.62zm8.29.59a3.7 3.7 0 0 0-4 0 2.09 2.09 0 0 0-.69 1.69v4.7a2.09 2.09 0 0 0 .69 1.69 3.71 3.71 0 0 0 4 0 2.09 2.09 0 0 0 .69-1.69v-4.7a2.09 2.09 0 0 0-.69-1.69zm-1.08 6.48a.84.84 0 0 1-.25.69 1.22 1.22 0 0 1-1.34 0 .84.84 0 0 1-.25-.69v-4.88a.84.84 0 0 1 .25-.69 1.22 1.22 0 0 1 1.34 0 .84.84 0 0 1 .25.69zm-30.73-48.34h1.14c4.45-.34 8.74-3.23 11.4-7.7l-.07-.11a13.33 13.33 0 0 0-7.84-5.48 19.84 19.84 0 0 0-8.12 0 13.33 13.33 0 0 0-7.84 5.48l-.07.11c2.66 4.47 6.95 7.35 11.4 7.7zm-3.88-7a4.45 4.45 0 1 1 4.45 4.45 4.45 4.45 0 0 1-4.45-4.42z" class="cls-2"/>
      <path d="M94.18 84.27l-1.54 9.64H94l.26-1.75h1.86l.26 1.75h1.53l-1.51-9.64zm.3 6.58l.74-4.85.73 4.87zm7.61-6.58h-1.51v9.64h4v-1.38h-2.49v-8.26zm7.25-.11c-1.49 0-2.26.88-2.26 2.42v5c0 1.54.77 2.42 2.26 2.42s2.26-.88 2.26-2.42v-1.26h-1.43v1.38c0 .69-.3.94-.79.94s-.78-.25-.78-.94v-5.2c0-.69.3-1 .78-1s.79.26.79 1v1h1.43v-.94c-.01-1.56-.78-2.4-2.26-2.4zm7.28 0a2.14 2.14 0 0 0-2.3 2.42v5a2.3 2.3 0 1 0 4.6 0v-5a2.14 2.14 0 0 0-2.3-2.42zm.79 7.53c0 .69-.3 1-.79 1s-.78-.26-.78-1v-5.2c0-.69.3-1 .78-1s.79.26.79 1zm7.66-3.29h-1.72v-4.13h-1.52v9.64h1.52v-4.13h1.72v4.13h1.54v-9.64h-1.54v4.13zm6.75-4.24a2.14 2.14 0 0 0-2.3 2.42v5a2.3 2.3 0 1 0 4.6 0v-5a2.14 2.14 0 0 0-2.3-2.42zm.79 7.53c0 .69-.3 1-.79 1s-.78-.26-.78-1v-5.2c0-.69.3-1 .78-1s.79.26.79 1zm5.93-7.42h-1.51v9.64h4v-1.38h-2.49v-8.26zm5.12 0h1.51v9.64h-1.51zm8.93 3.25v-.94c0-1.54-.77-2.42-2.26-2.42s-2.26.88-2.26 2.42v5c0 1.54.77 2.42 2.26 2.42s2.26-.88 2.26-2.42v-1.26h-1.43v1.38c0 .69-.3.94-.79.94s-.78-.25-.78-.94v-5.2c0-.69.3-1 .78-1s.79.26.79 1v1zM110.8 98c0-.69.28-1 .76-1s.76.26.76 1v.47h1.43v-.37c0-1.54-.76-2.42-2.23-2.42s-2.23.88-2.23 2.42c0 2.75 3 3.12 3 5.11 0 .69-.3.94-.79.94s-.78-.25-.78-.94v-.76h-1.43v.66c0 1.54.77 2.42 2.26 2.42s2.26-.88 2.26-2.42c-.05-2.75-3.01-3.11-3.01-5.11zm7.93-2.32a2.14 2.14 0 0 0-2.3 2.42v5a2.3 2.3 0 1 0 4.6 0v-5a2.14 2.14 0 0 0-2.3-2.42zm.79 7.53c0 .69-.3 1-.79 1s-.78-.26-.78-1V98c0-.69.3-1 .78-1s.79.26.79 1zm6.82-7.42h-2.4v9.64h2.4c1.51 0 2.26-.84 2.26-2.38v-4.87c-.01-1.55-.75-2.39-2.26-2.39zm.74 7.33c0 .69-.29.94-.77.94h-.85v-6.89h.85c.48 0 .77.25.77.94zm7.76-7.33h-2.22l-1.54 9.64h1.39l.26-1.75h1.86l.26 1.75h1.53zm-1.91 6.58l.73-4.87.73 4.87z" class="cls-3"/>
      <path d="M179 78.19a2 2 0 0 0-2.19-.83c-.76.26-1.91 1.6-2.72.87s-.66-1.7-1.82-1.73a1.57 1.57 0 0 0-1 .37c-.53.41-.66.8-1.42.59s-1.44-.83-2.37-.55a3.19 3.19 0 0 0-1.07.7 1.24 1.24 0 0 1-1.69-.17c-.6-.5-1.11-1-2-.74s-1.27 1.4-2.45 1.29c-.45 0-.54.65-.09.69 1 .09 1.46-.34 2.2-1 1-.86 1.47.11 2.29.59a1.82 1.82 0 0 0 2 0c.45-.33.81-.79 1.43-.75a5.16 5.16 0 0 1 1.12.46 1.71 1.71 0 0 0 2.12-.26c.53-.47 1-.78 1.6-.06a8.56 8.56 0 0 0 .7 1.12 1.68 1.68 0 0 0 1.89.12c1.11-.52 1.79-1.49 2.91-.27.3.32.86-.11.56-.44zm-17.23-3.39c.72-.36 1.69-1.8 2.58-1.23s.87 1.51 2 1.37a1.64 1.64 0 0 0 1-.51c.47-.47.55-.86 1.33-.77s1.53.57 2.42.16a3.28 3.28 0 0 0 1-.82 1.29 1.29 0 0 1 1.7-.09c.66.39 1.23.77 2 .41s1.08-1.51 2.26-1.59c.45 0 .45-.7 0-.67-1 .07-1.41.54-2.05 1.24-.89 1-1.47.12-2.35-.21a1.91 1.91 0 0 0-2 .33c-.41.38-.7.87-1.32.92a5.27 5.27 0 0 1-1.17-.26 1.79 1.79 0 0 0-2.07.56c-.46.53-.93.9-1.57.3-.31-.29-.48-.71-.84-1a1.75 1.75 0 0 0-1.89.17c-1 .66-1.58 1.68-2.85.7-.34-.27-.84.22-.49.49a2.06 2.06 0 0 0 2.31.5zm-76.05 2.82c-1.17.15-1.49-.95-2.5-1.2s-1.35.29-1.93.82a1.24 1.24 0 0 1-1.69.24 3.19 3.19 0 0 0-1.1-.65c-.95-.24-1.49.37-2.35.64s-.9-.15-1.44-.54a1.57 1.57 0 0 0-1-.33c-1.16.08-1.09 1.16-1.75 1.81s-2-.53-2.75-.76a2 2 0 0 0-2.15.91c-.29.35.28.75.57.41 1.07-1.26 1.78-.32 2.92.16a1.68 1.68 0 0 0 1.89-.19A8.57 8.57 0 0 0 73 77.8c.52-.74 1.05-.45 1.6 0a1.71 1.71 0 0 0 2.13.17 5.16 5.16 0 0 1 1.1-.5c.62-.07 1 .38 1.46.69a1.82 1.82 0 0 0 2-.05c.8-.51 1.22-1.5 2.27-.68.76.6 1.2 1 2.23.88.5-.06.38-.75-.07-.69zm.12-4.13c-1.23 1-1.81 0-2.87-.58a1.75 1.75 0 0 0-1.9-.1c-.35.26-.5.68-.8 1-.62.62-1.11.27-1.59-.24a1.79 1.79 0 0 0-2.09-.48 5.25 5.25 0 0 1-1.16.31c-.62 0-.94-.5-1.36-.87a1.91 1.91 0 0 0-2-.25c-.86.36-1.41 1.23-2.34.3-.67-.67-1.05-1.13-2.1-1.16-.45 0-.42.66 0 .67 1.18 0 1.35 1.12 2.32 1.5s1.38-.08 2-.49a1.29 1.29 0 0 1 1.7 0 3.28 3.28 0 0 0 1 .78c.91.37 1.52-.13 2.42-.26s.87.27 1.36.72a1.64 1.64 0 0 0 1 .47c1.16.1 1.24-.93 2-1.45s1.9.79 2.63 1.12a2.06 2.06 0 0 0 2.29-.48c.33-.33-.18-.79-.51-.51z" class="cls-4"/>
      <path d="M123.61 2.94l-.22-.11L5.71 61.08l117.46 58.14.22.11 117.68-58.25zM8 61.08L123.39 3.94l115.43 57.14-115.43 57.14z" class="cls-4"/>
      <path d="M67.12 37.3c-5.07 0-7.69 2.82-7.69 7.76v16.06c0 4.94 2.63 7.76 7.69 7.76s7.7-2.82 7.7-7.76V57h-4.89v4.41c0 2.21-1 3-2.67 3s-2.67-.79-2.67-3V44.75c0-2.21 1-3 2.67-3s2.67.84 2.67 3v3.31h4.88v-3c0-4.94-2.62-7.76-7.69-7.76zM93.53 60c0-3.22-.84-5.56-3.43-6.57 2.3-1 3.38-3.09 3.38-6.26v-2.42c0-4.76-2.3-7.1-7.65-7.1H78v30.87h5.16V56H85c2.35 0 3.38 1.06 3.38 3.93v4.85a9 9 0 0 0 .47 3.79h5.25a8.58 8.58 0 0 1-.56-3.75zm-5.21-11.72c0 2.47-1.17 3.26-3.1 3.26h-2v-9.48h2.48c1.83 0 2.63 1 2.63 3.18zm16.26-10.98c-5.07 0-7.84 2.82-7.84 7.76v16.06c0 4.94 2.77 7.76 7.84 7.76s7.84-2.82 7.84-7.76V45.06c-.01-4.94-2.78-7.76-7.84-7.76zm2.67 24.12c0 2.21-1 3-2.67 3s-2.67-.84-2.67-3V44.75c0-2.21 1-3 2.67-3s2.67.84 2.67 3zM123.5 37.3c-5.07 0-7.84 2.82-7.84 7.76v16.06c0 4.94 2.77 7.76 7.84 7.76s7.84-2.82 7.84-7.76V45.06c0-4.94-2.77-7.76-7.84-7.76zm2.67 24.12c0 2.21-1 3-2.67 3s-2.67-.84-2.67-3V44.75c0-2.21 1-3 2.67-3s2.67.84 2.67 3zm18.69-10.32l-6.85-13.45h-5.07l7.18 13.76-7.18 17.11h5.31l5.02-12.3 1.59 2.82v9.48h5.16V37.65h-5.16V51.1zm8.38 17.42h14.08v-4.41h-8.92v-9.04h7.09v-4.41h-7.09v-8.6h8.92v-4.41h-14.08v30.87zm25.44-30.87h-8.16v30.87h8.16c5.16 0 7.69-2.69 7.69-7.63V45.28c.01-4.94-2.53-7.63-7.69-7.63zm2.53 23.46c0 2.2-1 3-2.63 3h-2.91V42.06h2.91c1.64 0 2.63.79 2.63 3zm-57.56-33.18a4.82 4.82 0 1 0-4.82-4.82 4.83 4.83 0 0 0 4.82 4.82zm0-8.9a4 4 0 0 1 .43 0 1.18 1.18 0 0 0-.15.4 1.74 1.74 0 0 0 0 .4 1.72 1.72 0 0 0 .07.4 1.16 1.16 0 0 0 .2.39v-.8l-.05-.78a3.92 3.92 0 1 1-.46 0z" class="cls-4"/>
      <circle cx="123.62" cy="23.11" r="1.86" class="cls-4"/>
      <path d="M121 24a.58.58 0 0 0 .18-.23l-.45.11-.44.13a.59.59 0 0 0 .27.11.6.6 0 0 0 .24 0 .59.59 0 0 0 .2-.12zm.62.41a.81.81 0 0 0-.36 0 1 1 0 0 0-.53.32.81.81 0 0 0-.17.31l.54-.31zm.01 1.11l-.53.55a1.09 1.09 0 0 0 .39-.15 1.57 1.57 0 0 0 .31-.23 1.55 1.55 0 0 0 .24-.31 1.08 1.08 0 0 0 .15-.39zm1.26-.1l-.31.74-.29.75a1.17 1.17 0 0 0 .31-.31 1.78 1.78 0 0 0 .2-.35 1.74 1.74 0 0 0 .1-.39 1.15 1.15 0 0 0 0-.44zm1.11.47a1.16 1.16 0 0 0-.23-.37l.09.79.12.79a1.16 1.16 0 0 0 .12-.42 1.64 1.64 0 0 0-.11-.79zm1 .18a1.66 1.66 0 0 0-.17-.36 1.12 1.12 0 0 0-.29-.32l.24.75.26.74a1.13 1.13 0 0 0 0-.43 1.69 1.69 0 0 0-.04-.38zm.88-.71a1.81 1.81 0 0 0-.35-.21 1.17 1.17 0 0 0-.43-.11l.63.52.64.49a1.19 1.19 0 0 0-.21-.39 1.82 1.82 0 0 0-.28-.3zm.59-1.21a1.54 1.54 0 0 0-.38 0 1 1 0 0 0-.39.13l.74.1.75.07a1.05 1.05 0 0 0-.35-.22 1.53 1.53 0 0 0-.37-.08zm.29-1.31a.75.75 0 0 0-.26.06.66.66 0 0 0-.25.19h1.04a.66.66 0 0 0-.27-.16.75.75 0 0 0-.26-.09zm-.71-.69a.81.81 0 0 0 .36 0 1 1 0 0 0 .55-.28.8.8 0 0 0 .2-.3l-.56.27zm-.51-.62l.59-.48.58-.5a1.08 1.08 0 0 0-.41.11 1.48 1.48 0 0 0-.59.49 1.08 1.08 0 0 0-.18.38zm-.67-.53l.38-.71.35-.72a1.18 1.18 0 0 0-.34.28 1.76 1.76 0 0 0-.23.34 1.71 1.71 0 0 0-.14.38 1.15 1.15 0 0 0 0 .44zm-1.87-.62a1.13 1.13 0 0 0 .27.34l-.17-.77-.2-.76a1.14 1.14 0 0 0-.08.42 1.69 1.69 0 0 0 0 .39 1.65 1.65 0 0 0 .18.38zm-1.31.3a1.76 1.76 0 0 0 .33.24 1.18 1.18 0 0 0 .42.15l-.58-.57-.6-.55a1.19 1.19 0 0 0 .18.41 1.82 1.82 0 0 0 .25.32zm-.56 1.24a1.52 1.52 0 0 0 .38 0 1.06 1.06 0 0 0 .4-.1l-.73-.16-.74-.13a1 1 0 0 0 .33.25 1.52 1.52 0 0 0 .36.14zm-.56 1.08a.73.73 0 0 0 .26 0 .65.65 0 0 0 .27-.17h-1.04a.66.66 0 0 0 .25.19.75.75 0 0 0 .26-.02zm-1.26-8.06a17 17 0 0 1 5.06-.49 21.24 21.24 0 0 1 5.07 1 40.73 40.73 0 0 1 4.89 1.95v-.07a41.37 41.37 0 0 0-4.82-2.25 21.78 21.78 0 0 0-5.13-1.28 13.08 13.08 0 0 0-5.28.35 10 10 0 0 0-4.58 2.8v.06a14 14 0 0 1 4.79-2.07zm2.87-2.13c.34 0 .67 0 1 .08s.63.18.95.2a7.21 7.21 0 0 0 1 0v-.07a1.74 1.74 0 0 0-.91-.72 2.38 2.38 0 0 0-1.08-.06 6.69 6.69 0 0 0-1 .16c-.34.08-.67.17-1 .28v.08c.35.03.7.03 1.04.05z" class="cls-4"/>
      <path d="M112.14 23.15l.6.88c.42.57.86 1.13 1.33 1.65.24.26.47.52.73.77l.37.37.39.35.4.35.41.33c.27.23.56.41.85.62s.59.37.89.55.62.32.93.47a12.16 12.16 0 0 0 2 .69l.51.13.52.09.52.08h2.12l.52-.08.52-.09.51-.13a12.16 12.16 0 0 0 2-.69c.31-.15.63-.31.93-.47s.6-.35.89-.55.58-.39.85-.62l.41-.33.4-.35.39-.35.37-.37c.25-.24.49-.51.73-.77.47-.53.91-1.08 1.33-1.65l.6-.88c.19-.3.37-.61.56-.91l-.38-.5a12.61 12.61 0 0 0-1-1.2l-.33-.39-.36-.35-.36-.35A3.59 3.59 0 0 0 133 19l-.77-.64-.81-.57-.21-.14-.21-.12-.43-.25-.43-.25-.45-.21a8.37 8.37 0 0 0-.91-.38c-.32-.11-.61-.23-.95-.31l-.93-.23c-.32-.06-.65-.1-1-.15a3.88 3.88 0 0 0-.49 0h-.49a9.09 9.09 0 0 0-1 0h-.58a9.09 9.09 0 0 0-1 0h-.49a3.88 3.88 0 0 0-.49 0c-.33.05-.66.09-1 .15l-.93.23c-.34.09-.63.21-.95.31a8.37 8.37 0 0 0-.91.38l-.45.21-.43.25-.43.25-.21.12-.21.14-.82.57-.77.64a3.59 3.59 0 0 0-.37.34l-.36.35-.36.35-.33.39a18.1 18.1 0 0 0-1.24 1.59l-.06.1c.23.42.42.73.61 1.03zm2.44-4l.69-.47.84-.46.21-.11.22-.09.44-.19.44-.18.45-.15a14.34 14.34 0 0 1 1.79-.49l.94-.16.91-.09c.3 0 .62 0 .92-.05h2.45c.31 0 .62 0 .92.05l.91.09.94.16a14.35 14.35 0 0 1 1.79.49l.45.15.44.18.44.19.22.09.21.11.84.46.8.55c.45.41 2.27 2.48 2.27 2.9a18.54 18.54 0 0 1-2.3 3.46 7.32 7.32 0 0 1-.55.48l-.4.32-.41.29-.45.32-.43.26c-.28.18-.58.33-.87.49s-.6.28-.89.42l-.91.36a15 15 0 0 1-1.86.52l-.47.09-.46.07-.47.06h-2.05l-.47-.06-.46-.07-.47-.09a15 15 0 0 1-1.86-.52l-.91-.36c-.3-.14-.6-.26-.89-.42s-.59-.3-.87-.49l-.43-.26-.41-.29-.41-.29-.4-.32c-.16-.12-.3-.26-.45-.4a24.56 24.56 0 0 1-2.56-3.53c0-.4 2.26-2.7 2.58-2.98z" class="cls-4"/>
      <path d="M133.48 28.75a37.31 37.31 0 0 1-4.48 1.78 19.45 19.45 0 0 1-4.64.94 15.52 15.52 0 0 1-4.63-.45 12.85 12.85 0 0 1-4.31-1.92v.06a9.18 9.18 0 0 0 4.19 2.57 12 12 0 0 0 4.83.32 19.94 19.94 0 0 0 4.7-1.18 37.87 37.87 0 0 0 4.41-2.06zm-9.2 4.68a1.6 1.6 0 0 0 .83-.66v-.06a6.6 6.6 0 0 0-.93 0c-.29 0-.57.14-.87.18s-.61.06-.92.08h-.94v.07c.3.1.61.18.92.25a6.11 6.11 0 0 0 1 .14 2.18 2.18 0 0 0 .91 0z" class="cls-4"/>
      <circle cx="123" cy="23.11" r=".72" class="cls-2"/>
      <circle cx="124.71" cy="22.73" r=".29" class="cls-2"/>
    </g>
  </g>
</svg>
