<svg xmlns="http://www.w3.org/2000/svg" viewBox="0 0 1394.87 167.24" id="svg_hills">
  <defs>
    <style>
      .\32 03566d6-93d0-4e3c-8d4c-e9b9b3f7c927{fill:#878787;}.\36 8210318-3d55-4dee-a10c-6b55c4d13ecc{fill:#575756;}.e3fec279-883e-46b7-a80f-22261d6dc624{fill:#3c3c3b;}#
      .d2d652c0-3ebc-486c-9325-e8be6b0ec8b3{fill:#2e2d2c;}
    </style>
  </defs>
  <g id="955a75a6-5313-44a1-97e3-5432266c7fb1" data-name="Layer 2">
    <g id="49b48f36-6df0-417b-af3b-1a483b05af5c" data-name="Layer 1">
      <path d="M1261 113a6.12 6.12 0 0 1-1.3-.93l-1.66-2.43v-.11l-.13-.11-1.33-2a2 2 0 0 0-.12-.3 3 3 0 0 1-.4-.48 481.12 481.12 0 0 1-29.94-51.41 32.41 32.41 0 0 0-2-3.62c.18-.82.24-1.74.94-1.88a5.12 5.12 0 0 1-1.65-1.37 22 22 0 0 0-1.72-1.88 9.69 9.69 0 0 0-5.85-2.64c-.7-.54 1 0 .73-.4a10 10 0 0 1-4.66-1.45h.34c-6.29-2.37-8.6-3.82-15.34-6.86l.11.66a10.47 10.47 0 0 1-2.23-1.32c-2.33 0 4.17 1.71 1.93 1.85-1.17-1.72-10.55-4.22-11-5.81-2.3-.92.21.8-2.09-.13l-.36-.53-.91.13c-1.46-.66-1.9-1.32-1.75-1.59a14.43 14.43 0 0 0 1.51.48c-1.54-1-5.08-1.95-6-2.37l1.89 1c-3.26-1.12-6.73-2.54-10.2-3.9l-2.63-1a27.58 27.58 0 0 0-3.12-1 17.33 17.33 0 0 0-3.75-.51 16.83 16.83 0 0 0-3.5.28l.7.19c-1.61.24-2.61.5-3.42.67s-1.39.29-2 .41a18.9 18.9 0 0 0-2 .48c-.4.12-.85.26-1.37.44s-1.08.43-1.74.71l.15-.13c-.46.31-1 .65-1.6 1-.3.17-.63.33-1 .49s-.66.33-1 .49c1-.85-2.89.68-1.5-.38-2.25 1.42-2.71 1.81-3 2.14a9.23 9.23 0 0 1-1.3 1.77l-1.09.07c-.65.86-.55 1.06-2.7 2.42 1.51-1.32-2 .33-.43-1.2a21.41 21.41 0 0 0-5.59 3c-.32.22-.63.43-.93.62a7.81 7.81 0 0 1-.93.47 4.72 4.72 0 0 1-2.15.39c-.66 1 .54.65 1.77.14.61-.26 1.22-.56 1.62-.75s.57-.27.32-.06c1.38-.24-1.06 1.64-2.8 2.22a9.8 9.8 0 0 1-3.09.4 20.45 20.45 0 0 0-4.93.82c.43-.11.42-.2.83-.32-1.74.19-3 1.24-5.27 1.24-.86.91-2.75.51-2.74 1.42 1.41-.34 2.8-.68 4.15-1.07-2.23.75-4.15 2.2-8.46 2.38a11.31 11.31 0 0 1 2.18-.92c-1.28-.05-2.24.55-3.58.48 0-.46 1.35-.71 2.95-1a18.29 18.29 0 0 0 4.58-1.22 10 10 0 0 0-2.7.59c-.88.24-1.46.36-1-.22-1.44 1.51-4.69.62-7.66 2V41a13.57 13.57 0 0 1-2.46.69l1.52-.93c-2.48 1-5.34.25-7.86 1 2.74-.44 3.09-.32 3.07-.11s-.41.54.8.56c-3.22.85-4.3.68-5.52.47a10.34 10.34 0 0 0-2.23-.19 17.76 17.76 0 0 0-3.75.57c1.24-.25 3.45-.33 2.1.16a42.91 42.91 0 0 1-4.58.41c-2.54.73-2.26.82-1.6.81s1.67-.08.7.37a3.21 3.21 0 0 0-2.19.55c-.28.18-.56.39-.88.63a9.63 9.63 0 0 1-1.19.71l-.41-.46a9.6 9.6 0 0 0-2.59 1.12c-.39.28-.41.48-.43.66 0 .38 0 .61-2.33 1.78l.24-.43.27-.41c.19-.28.38-.56.58-.84a23.26 23.26 0 0 0-2.08 1.57q-.11-.37-.2-.74l-.69.68-.56.59-.52.51-.48.48c-.32.32-.68.61-1 1s-.78.74-1.21 1.25c.89-.31 1 .7.14 2.44-.51.55-.61.35-.72.32s-.25.13-.68 1.37c-.27-.63-.64-1.39.65-2.37-.19-.17-.15-.7-.32-.89a5.89 5.89 0 0 0-1.42 2.29c-.29.79-.44 1.51-.59 1.94a3.61 3.61 0 0 1 .53-.92c-.09 1.25-.08 2.42-.16 3.52-.49.43-.56 0-.64-.42a7.55 7.55 0 0 1-.4 2c-.5-.38-1.12-.45-.87-1.71a13.68 13.68 0 0 1-.31 1.39 5.72 5.72 0 0 1-.22.66 5.42 5.42 0 0 1-.27.67 6.51 6.51 0 0 0-1 .47c-.39.18-.71.29-.68.1a16.13 16.13 0 0 0-2.05 2.4 9.53 9.53 0 0 1-3.2 2.64c0 .14-.2.37-.68.76-2.48 1.45-5.3 2.37-7.77 4.73-.85.18-1.7.35-2.55.56-1.1.87-.25.65.41.57s1.12 0-.66 1.42a7.23 7.23 0 0 1-1.31.92.68.68 0 0 1-.61.05c-.28-.13-.41-.46-1-.19-.22.31-.48.68-.78 1.08s-.62.85-1 1.3a11.85 11.85 0 0 1-1.41 1.34 10.07 10.07 0 0 1-1.89 1.24 18.07 18.07 0 0 1 1.89-1.76c-.74.38-1.47.78-2.2 1.18a11.7 11.7 0 0 1 .94-1.43c.31-.4.6-.7.76-.92.33-.43.2-.46-1 0 .37.29.13.79-.37 1.41s-1.34 1.32-2.08 2.07a16.63 16.63 0 0 0-2 2.1c-.44.63-.59 1.14-.17 1.4-.46.28-.94.54-1.39.83.29-.28.23-.38.53-.65-1.42.78-1.4 1.31-1.39 1.92a2.53 2.53 0 0 1-.13 1 3.92 3.92 0 0 1-1.07 1.51c-.95.83-1.74 1.37-1.46.66l-1 2.23c-.41.47-.64.38-.44 0-.7 1-1.4 1.92-2.05 2.89a14.88 14.88 0 0 1-.42 2.3c-.86.71.07-.47-.33-.35l-.73 1.91c-1 .55-.53-1.07.4-2.26-1.6.49-1.73.9-1.92 1.58a5.05 5.05 0 0 1-.51 1.27 6 6 0 0 1-.63.88c-.14.16-.3.33-.47.51l-.29.28s-.12.13-.19.2l-.21.23c.26-.49.36-.7.51-1l.43-.88a4.62 4.62 0 0 0-1.2.67 5.83 5.83 0 0 0-.49.42 3.73 3.73 0 0 0-.3.34l-.32.41-1.42 1.85c-.26.34-.54.69-.85 1.06l-1.07 1.29c.13-.11.33-.32.57-.57s.54-.56.84-.84c.6-.57 1.28-1.2 1.87-1.68 1.18-1 2-1.27 1.37.14a9.4 9.4 0 0 0-1 1.36 8.36 8.36 0 0 0-.88 2c-.94.12-1.74 1.76-2.92 3.77l-1.38.38c-.57 1.23-.55 1.61-.42 1.86l.53-.06.65-.11c.46-.07 1-.15 1.56-.22 3.69.12 3.88.68 4.43 1.14h1.15a.49.49 0 0 0 .23-.11c.08-.08 0-.18 0-.27v-.07l-.19-.1c-.09-.06-.1-.13 0-.18a1.47 1.47 0 0 1 .31-.07h.24l.13-.06.33-.14.21-.08h.33l2-.09 1-.06h3.91c1.48-.06 3-.2 5-.36 2.27.3-.42.43.39.65l2.06-.52c.5 0 .33.2.24.28 1.72-.18.18-.71 2.87-.84.76-.77 5.45 1.27 8.82.45.81.22-.42.43-.18.71a60.57 60.57 0 0 0 7.71-1l3.17.53c-2.32-.58.7-1.16 3.35-1.63l-.35-.12h.91l-.56.1.47.16.62-.25h2.08c0 .21-.55.45-1.21.68l-1.49-.47c-1.05.41-2 .87-1.85 1.3a7.48 7.48 0 0 1 1.38-.17c-.28.11-.45.21-.33.29s.58-.07 1.28-.24l.92.82.24-.31 5.46.61c4-.73 7.41-1.85 13.64-2.07-1.56.56-.37.95-.48 1.64-1.67-.76-4.83.22-8 0 1.68.11 1.3.43.86.54l5.78-.56c-.15.56 1.2.45 2.7.71-1.09-1.14 4.31-.68 6.67-1 .13.38-.44.75-3.29.62 3.12.89 4.12-1.25 7.18-.49-.7 0-1.07-.07-1.35.12 1.64-.31 5.61 0 4.66.33h-.7c4.62.21 14.09.2 14.8-.74a3.75 3.75 0 0 1-.92 1.33l5.74-2.13h2.6c.31.88.81 1.92-1.86 2.21a18.72 18.72 0 0 0 4.79 0c-.75-.12-1.84-1.2-.81-1.26 2.8.94 1.94.51 5.4 1.32-1.12-.19.16-1.45 1.94-1.39-.28.19.12 1.26-.54 1.39l4.26-1.16c-.78.28.05 1 1 1.37-.45-.25 3.83.06 5-.05l-1.87-.31c5 .23 5-1.72 9.94-1.61-.61.26-1.51 1.59 1 1.76a38.83 38.83 0 0 1 3.93-2h5.59c-2.4.82-5.14 1.67-7 2.11 1.87.3.51.44 3.32.42 1 .35-1.54.51-2.36.53l6.53.27c-.28-.75 5-.72 4.76-1.35l-7.1.73c-.28-.75 4.13-2.1 8.75-1.95 1.17.3-.9 1.33-.8 1.58a18.16 18.16 0 0 1 4.82-.29l-2 .39c2.57.3 4.21-1 7.3-.24 1.07.05 3.18 1 3.37.54a3 3 0 0 1-1.57-2.66h3.65l-.16.3h.7v-.29h3.72c.37.64-2.86 1.41-1.55 1.92.07-.2 1-.46 1.44-.54 1.12.18-.47.63 2 .55.41-.76 5 .08 1.16-.64 2.39-.21 2.53.17 5.33.14-.59-.33.71-1 2.34-1.4h3.06l.16.07c4.89.07 7.51.42 12.06.42.42.18 2.62.4 1.68.73a10.16 10.16 0 0 1 2.66-.42c2.72.65-3.13.11-1.06.9.18-.44 3.63-.62 5.63-.9-.62-.68-4.62-.12-6.63.15 0-.33.42-.66 1.16-1h14.59c3.28.28 11.63 0 16.46.37a12.78 12.78 0 0 0 2-.46l18.69-.14a1.81 1.81 0 0 0 .52.25l1.1-.15h.07v-.06l-.11-.12-.22-.24-.24-.26-.12-.18c.18.19.92.85.86.45zm-200.86.29a11.31 11.31 0 0 1 2.42.16 5.39 5.39 0 0 1-2.43-.13zm-46.44-9.48a1.26 1.26 0 0 1 .69-.81.72.72 0 0 1 0 .93c-.26.35-.7.75-1.2 1.3.1-.32.26-.86.49-1.38zM377 72.05a7.9 7.9 0 0 1-1.49-.68l-1.9-1.78v-.08l-.15-.08L371.9 68a1.25 1.25 0 0 0-.14-.22 2.81 2.81 0 0 1-.46-.35A359.38 359.38 0 0 1 337 29.81a23.58 23.58 0 0 0-2.31-2.65c.21-.6.27-1.27 1.08-1.37a6 6 0 0 1-1.89-1 21.94 21.94 0 0 0-2-1.38 14.52 14.52 0 0 0-6.7-1.93c-.81-.39 1.15 0 .84-.29a16.45 16.45 0 0 1-5.34-1.06h.38c-7.2-1.74-9.85-2.8-17.57-5l.13.48a14.47 14.47 0 0 1-2.56-1c-2.67 0 4.78 1.25 2.21 1.35-1.34-1.26-12.08-3.09-12.55-4.25-2.63-.68.24.58-2.39-.09l-.41-.39-1 .1c-1.67-.48-2.18-1-2-1.16.39.13 1.26.25 1.73.35-1.77-.76-5.81-1.42-6.9-1.74l2.16.71c-3.73-.82-7.7-1.85-11.68-2.85l-3-.75c-1.06-.25-2.24-.52-3.57-.73a30.52 30.52 0 0 0-4.29-.38 30 30 0 0 0-4 .2l.8.14c-1.84.18-3 .37-3.92.49l-2.29.3c-.7.08-1.4.18-2.31.35l-1.57.32c-.58.14-1.23.31-2 .52l.17-.09c-.53.23-1.14.48-1.84.72l-1.1.36-1.16.36c1.18-.62-3.31.49-1.72-.28a14.92 14.92 0 0 0-3.38 1.56 7.82 7.82 0 0 1-1.49 1.29h-1.25c-.75.63-.63.77-3.1 1.77 1.73-1-2.34.24-.49-.88a30.74 30.74 0 0 0-6.4 2.19l-1.06.45c-.35.13-.7.25-1.06.35a8.15 8.15 0 0 1-2.46.29c-.75.71.62.48 2 .1.7-.19 1.4-.41 1.86-.55s.65-.2.36 0c1.58-.17-1.22 1.2-3.2 1.62a17.23 17.23 0 0 1-3.54.29 35.78 35.78 0 0 0-5.65.6c.49-.08.48-.14 1-.23-2 .14-3.39.91-6 .91-1 .67-3.15.37-3.14 1 1.61-.25 3.21-.5 4.76-.78-2.56.55-4.75 1.61-9.69 1.74a17.55 17.55 0 0 1 2.5-.67c-1.47 0-2.57.4-4.1.35 0-.34 1.55-.52 3.37-.73a30.79 30.79 0 0 0 5.25-.89 17.26 17.26 0 0 0-3.09.43c-1 .18-1.68.26-1.13-.16-1.64 1.11-5.37.45-8.78 1.47l.05-.4a22.71 22.71 0 0 1-2.82.5l1.74-.68c-2.84.7-6.11.18-9 .72 3.14-.33 3.54-.24 3.52-.08s-.47.4.91.41a19.21 19.21 0 0 1-6.33.35 18.38 18.38 0 0 0-2.55-.14 31.21 31.21 0 0 0-4.29.42c1.42-.18 3.95-.24 2.41.12-1.72.13-4 .32-5.24.3-2.91.53-2.58.6-1.84.59s1.91-.06.8.27a5.32 5.32 0 0 0-2.51.4c-.32.13-.64.29-1 .46a13.36 13.36 0 0 1-1.36.52l-.47-.34a14.67 14.67 0 0 0-3 .82c-.45.2-.47.35-.49.48s0 .44-2.67 1.31l.27-.31.31-.3c.21-.2.43-.41.66-.61-.83.37-1.66.74-2.39 1.15q-.12-.27-.23-.54l-.79.5-.65.44-.6.37-.55.35c-.36.23-.78.44-1.17.71s-.9.54-1.38.92c1-.23 1.12.51.16 1.79-.59.4-.7.25-.83.23s-.29.1-.78 1c-.31-.46-.73-1 .74-1.73-.22-.13-.17-.51-.36-.65a4.57 4.57 0 0 0-1.63 1.67c-.33.58-.5 1.11-.67 1.42a2.69 2.69 0 0 1 .61-.67c-.1.91-.1 1.77-.19 2.57-.57.32-.65 0-.73-.31-.2.46 0 .83-.46 1.46-.57-.28-1.28-.33-1-1.25a7.06 7.06 0 0 1-.36 1 3.3 3.3 0 0 1-.26.48 3.34 3.34 0 0 1-.31.49 9.79 9.79 0 0 0-1.11.34c-.45.13-.82.22-.78.08a15.48 15.48 0 0 0-2.35 1.76 11.22 11.22 0 0 1-3.66 1.93c0 .11-.23.27-.78.56-2.84 1.06-6.07 1.73-8.9 3.46-1 .13-2 .26-2.92.41-1.26.63-.29.47.47.42s1.29 0-.76 1a9.42 9.42 0 0 1-1.5.67 1.18 1.18 0 0 1-.69 0 1.34 1.34 0 0 0-1.14-.14c-.25.23-.55.5-.89.79s-.71.63-1.17 1a12.93 12.93 0 0 1-1.61 1 13.41 13.41 0 0 1-2.17.91 20 20 0 0 1 2.17-1.21c-.85.28-1.68.57-2.52.86a9.42 9.42 0 0 1 1.08-1c.35-.29.69-.52.87-.67.38-.31.23-.34-1.14 0 .42.21.15.58-.42 1s-1.53 1-2.38 1.51a16.81 16.81 0 0 0-2.25 1.54c-.5.46-.67.83-.19 1-.53.2-1.08.4-1.59.61.33-.21.26-.28.61-.48-1.63.57-1.6 1-1.59 1.41a1.24 1.24 0 0 1-.15.77 3.24 3.24 0 0 1-1.23 1.11c-1.08.61-2 1-1.67.48l-1.35 1.61c-.47.34-.73.28-.5 0-.8.7-1.6 1.41-2.35 2.12a7.45 7.45 0 0 1-.48 1.68c-1 .52.08-.35-.38-.26l-.84 1.39c-1.18.4-.61-.78.46-1.65-1.83.36-2 .66-2.2 1.15a3.08 3.08 0 0 1-.58.93 5.07 5.07 0 0 1-.72.64l-.59.37-.33.2-.21.15-.24.17c.3-.36.41-.51.58-.74l.49-.64a6.56 6.56 0 0 0-1.37.49c-.2.1-.38.2-.56.31a3.6 3.6 0 0 0-.34.25l-.37.3-1.62 1.35-1 .77-1.22.95.66-.42c.28-.19.62-.41 1-.61.69-.42 1.47-.88 2.14-1.23 1.35-.7 2.26-.93 1.57.1a8.25 8.25 0 0 0-1.16 1 5.39 5.39 0 0 0-1 1.46c-1.08.09-2 1.29-3.34 2.76L86 71.9c-.65.9-.63 1.18-.48 1.36h.61l.75-.08c.52-.05 1.09-.11 1.79-.16 4.23.08 4.45.5 5.07.83h1.31a.71.71 0 0 0 .26-.08c.09-.06.05-.13 0-.2l-.22-.07c-.1 0-.11-.09 0-.13h.77l.38-.11.23-.06h.39l2.34-.07h5.57c1.69 0 3.48-.14 5.73-.27 2.6.22-.48.31.44.48l2.36-.38c.57 0 .37.14.27.21 2-.13.2-.52 3.29-.61.87-.56 6.25.93 10.11.33.93.16-.48.31-.21.52 5.26-.36 4.5-.25 8.83-.77l3.63.39c-2.66-.43.81-.85 3.84-1.19l-.4-.09h1l-.64.07.53.11.71-.18h2.38c0 .16-.63.33-1.39.49l-1.7-.34c-1.21.3-2.34.64-2.11.95a13.21 13.21 0 0 1 1.58-.12c-.32.08-.52.16-.38.21a6.23 6.23 0 0 0 1.46-.18l1 .6.28-.23 6.25.44a129.45 129.45 0 0 1 15.62-1.51c-1.79.41-.42.69-.55 1.2-1.91-.56-5.53.16-9.22 0 1.92.08 1.48.31 1 .39l6.62-.41c-.17.41 1.38.33 3.09.52-1.25-.83 4.94-.49 7.63-.72.15.28-.51.55-3.77.45 3.57.65 4.71-.91 8.23-.35a4.66 4.66 0 0 0-1.55.09c1.88-.23 6.42 0 5.34.24h-.8c5.29.15 16.13.15 17-.54 0 .09-.73.83-1.06 1l6.58-1.56h3c.35.64.92 1.4-2.13 1.61a33.49 33.49 0 0 0 5.49 0c-.86-.09-2.11-.88-.93-.92a62.24 62.24 0 0 0 6.19 1c-1.29-.14.18-1.06 2.22-1-.32.14.14.93-.61 1L224 73c-.89.2.06.76 1.11 1-.52-.18 4.39 0 5.74 0l-2.14-.23c5.73.17 5.7-1.26 11.38-1.18-.69.19-1.73 1.16 1.16 1.29.72-.25 2.36-.87 4.51-1.45h6.4c-2.75.6-5.89 1.22-8 1.54a14.63 14.63 0 0 0 3.8.31c1.13.26-1.76.37-2.71.38l7.48.2c-.32-.55 5.73-.53 5.46-1l-8.14.54c-.32-.55 4.73-1.53 10-1.42 1.34.22-1 1-.92 1.16a32.39 32.39 0 0 1 5.52-.21l-2.25.29c2.95.22 4.83-.71 8.36-.18 1.22 0 3.64.72 3.86.39a2.29 2.29 0 0 1-1.8-1.94H277l-.18.22h.8v-.21h4.26c.42.47-3.27 1-1.77 1.4a5.3 5.3 0 0 1 1.65-.39c1.28.13-.54.46 2.26.4.47-.56 5.68.06 1.32-.47 2.73-.16 2.9.12 6.11.1-.67-.24.81-.7 2.68-1h3.51l.18.05c5.6.05 8.6.31 13.82.31.48.13 3 .3 1.93.54a17.76 17.76 0 0 1 3-.3c3.12.48-3.59.08-1.21.65.2-.32 4.16-.45 6.45-.65-.71-.5-5.3-.09-7.59.11 0-.24.48-.48 1.33-.71h16.71c3.75.21 13.32 0 18.85.27a21.85 21.85 0 0 0 2.28-.33l21.41-.1a2.69 2.69 0 0 0 .59.18l1.26-.11h.08-.05l-.13-.09-.26-.18-.28-.19-.14-.13c.35-.02 1.2.46 1.13.19zm-230.05.21a20.18 20.18 0 0 1 2.77.12 9.57 9.57 0 0 1-2.79-.12zm-53.2-6.93a1.2 1.2 0 0 1 .79-.59c.27.29.22.49 0 .68s-.8.55-1.37.95c.12-.26.3-.66.57-1.04z" class="203566d6-93d0-4e3c-8d4c-e9b9b3f7c927"/>
      <path d="M1267.6 119.91l-20.74-71.28-12.76-7.54c-3.19-1.89-7.1-4.89-8.77-5.19-.5 1.56-3.14-1-4-2.36-.55-.86-.94-.05-2 .77-2.87-2-2.22 2.75-5.52 2.09-.06 4.43-4.79 2.38-8.14 3.08-3.22.89-5.41 4-9.88 3.74-2.2 3.35-6.57 3.55-10.75 4.07-3.33 1.85-8 1.58-10.75 4.07a18.59 18.59 0 0 0-9.88 3.74c-3.47.5-5.11 3.3-8.14 3.08-2.83.09-3.09 3.37-5.52 2.09-1.53.15-2.72-.31-2 .77a24.59 24.59 0 0 1-4.13-1.28c-3.33-2.11-5.15-.8-9.1-2.82-3.67-1.6-7.62-3.63-9.1-2.82-1.61.6-3.89-.9-4.13-1.28-1.18-1.85-1.53.87-3.27 1.4-1.11 1.53-3.77.62-3.27 1.4 1 1.6-.16 2.21-3.21 1.38-1.65 1.37-4.73 2-7.66 3.29-3.07 1.12-5.4 3.87-9.14 3.92-2 2.74-3 6.58-7.66 3.29-1.4 1.76-4.16-.1-3.21 1.38-1.2-1.88-1.48 0-3.86 0-4.3-3-4.59 1.68-9.21 0-4.11-.85-7.06.6-11 0-3.53.06-5 2.92-9.21 0-1.57 1.27-4-.23-3.86 0-.14-.22-1.14.66-4.11-.33-2.58-.38-5.72-.4-9-.72-3 .15-5.94.47-9-.72-2.92-.9-2.93 1.53-4.11-.33-.34-.54-1.78-.72-3.49 0l60.98 65.02z" class="68210318-3d55-4dee-a10c-6b55c4d13ecc"/>
      <path d="M1282.62 117.38c0 .7.2 23.38.2 23.38L594.8 139v-21.05l25.2 1.24 8.39-5.49c2.1-1.37 4.19-3.28 5.77-3.77a2.15 2.15 0 0 0 2.62-1.72c0-.41 1-.24 2.69-.22 1.71-1.32 4.23.39 7.29-.6 3.1 1.46 6.72-.33 10.75-.88s8.45.05 13-1.07c4.62.6 9.41-.36 14.2-1.16 4.8-.16 9.59-1.35 14.2-1.16A67.93 67.93 0 0 1 712 102c4-.64 7.68-.1 10.75-.88s5.58.4 7.29-.6c1.72-.31 2.68-.74 2.69-.22a33.07 33.07 0 0 0 3.5-1.3c2.1-1.48 4.92-1.47 7.73-3.07 2.81-1.39 5.61-3 7.73-3.07a5.32 5.32 0 0 0 3.51-1.39c0-.89 2.22-.07 4.43-.3 2.22.25 4.43-.67 4.43-.3 0 .77 1.69.7 4.35-.29 2.68.07 6.36-.46 10.38-.7s8.38 0 12.39-.84c4 .44 7.73 1.47 10.38-.7 2.69.26 4.34-1 4.35-.29 0-.91 1.58-.34 4.11-.9 2.51-2 6-.51 9.8-2.14 3.79-1.25 7.91-1.45 11.69-2.56 3.79-.8 7.29-.19 9.8-2.14a10 10 0 0 0 4.11-.9 17.91 17.91 0 0 0 4.14-1.07c2.48-.73 5.79-1.47 9.1-2.35 3.31-.66 6.63-1.23 9.1-2.35s4.15-.18 4.14-1.07c0-.29 1.76-.76 4.6-.87 2.84-.4 6.72-2 11-2.07 4.27.53 8.87-.78 13.11-2.47 4.26-.46 8.14-2.05 11-2.07 2.86 1 4.62-.12 4.61-.87 0 .82 1.6-.8 4.18-.43a46 46 0 0 0 10-1 77.72 77.72 0 0 1 11.91-1.22c3.86-.45 7.4-.64 10-1 2.58 0 4.19-.07 4.18-.43 0 0 1.23-1.34 3.27.89 2-.92 4.79 1.67 7.8 2.12 3 2.46 6.3 2.47 9.32 2.53 3 .49 5.8 2.45 7.8 2.12 2 .21 3.29 2.4 3.27.89 0 .86.55.78 1.52.94 1 1 2.36 1 4.07 2.51 1.69.25 3.69 1.58 5.89 3.63 2.18 1.28 4.57 3.92 7 4.31a25.51 25.51 0 0 1 7.35 4.53c2.43 1.49 4.77.87 7 4.31 2.23 4.46 4.19 2.54 5.89 3.63a17 17 0 0 1 4.07 2.51c1 .87 1.52 1 1.52.94 0-1.92 1.75-1.1 4.4-1.07 2.64-.44 6.15-2.27 9.68-2.36 3.51-1.43 7-1.31 9.68-2.36 2.65-.1 4.39-1.48 4.4-1.07 0 0 1.25-.39 3.36 1.06a24.12 24.12 0 0 1 8.41 2.66c3.38 2.31 7.15 2.35 10.94 3.46a86.54 86.54 0 0 1 10.87 3.39c3.36.65 6.31 2.09 8.41 2.66 2.13 2.19 3.37 1.28 3.36 1.06a8 8 0 0 0 3.4 0c2.17.23 5.26.09 9 .11a21.7 21.7 0 0 0 12.67.16c4.65.66 9.59.38 14.53.18 5 1 9.9.51 14.53.18 4.64.2 9 .63 12.67.16a76.94 76.94 0 0 1 9 .11 11.71 11.71 0 0 1 3.4 0 10.13 10.13 0 0 1 3 .39c1.92-.43 4.7 1.07 8 1 3.31.31 7.19 1.73 11.31 1.47 4.14.37 8.55 1.07 13 1.68 4.42 1.1 8.82.61 13 1.68 4.13-.09 8 1.09 11.31 1.47s6.08 1.09 8 1c1.92-.25 30.13 4.21 30.13 4.21M33.94 99.46L48.09 18l15.54-7.38c3.89-1.85 8.51-4.93 10.69-5.07 1 1.9 4-.84 4.86-2.31.57-.95 1.23 0 2.85 1.14 3.44-2 3.46 3.49 7.73 3.1.91 5.22 6.82 3.36 11.39 4.57 4.45 1.42 7.94 5.29 13.84 5.55 3.55 4.19 9.4 4.95 15.06 6 4.77 2.57 10.94 2.79 15.06 6a33.65 33.65 0 0 1 13.84 5.55c4.7 1 7.41 4.48 11.39 4.57 3.78.43 4.73 4.32 7.73 3.1 2.06.35 3.56 0 2.85 1.14a30.51 30.51 0 0 0 5.25-1c4-2.09 6.7-.34 11.56-2.26 4.58-1.46 9.44-3.38 11.56-2.26a5.74 5.74 0 0 0 5.25-1c1.22-2 2.2 1.2 4.61 2 1.76 1.93 5.13 1.17 4.61 2-1.06 1.77.63 2.62 4.53 2 2.45 1.8 6.66 2.85 10.8 4.76C243.37 50 247 53.51 252 54c3.21 3.46 5.29 8.09 10.8 4.76 2.19 2.23 5.5.37 4.53 2 1.24-2.08 2 .18 5.13.47 5.15-3 6.41 2.51 12.25 1.11 5.31-.52 9.49 1.53 14.61 1.32 4.7.49 7.17 4 12.24 1.11 2.33 1.67 5.29.2 5.13.46.14-.24 1.64.91 5.4.09 3.36-.15 7.52.2 11.88.21 4 .53 8 1.24 11.88.21 3.7-.72 4.18 2.14 5.4.09.35-.59 2.23-.64 4.64.41l-55.45 27.58z" class="68210318-3d55-4dee-a10c-6b55c4d13ecc"/>
      <path d="M802.9 114.19l161.74-.61-8.11-38.09-30.05 2.86-4.44-7c-1.11-1.76-2.22-4.23-3.05-4.84-.83.56-1.39-1.36-1.39-2.2 0-.54-.5-.29-1.41-.24-.91-1.7-2.22.6-3.83-.64-1.61 2-3.52-.3-5.64-.95s-4.43.23-6.85-1.15c-2.42.87-4.93-.29-7.45-1.25-2.52-.12-5-1.58-7.45-1.25a14.88 14.88 0 0 0-6.85-1.15c-2.11-.77-4 0-5.64-.95-1.61-.77-2.92.63-3.83-.64-.91-.37-1.41-.92-1.41-.24a14.46 14.46 0 0 1-1.85-1.76c-1.11-1.9-2.59-1.83-4.07-3.87-1.48-1.77-3-3.81-4.07-3.87a2.74 2.74 0 0 1-1.85-1.76c0-1.17-1.16 0-2.33-.31-1.16.37-2.33-.8-2.33-.31 0 1-.88.95-2.28-.3-1.41.14-3.34-.48-5.45-.72s-4.39.19-6.5-.86c-2.11.65-4 2.08-5.45-.72-1.41.39-2.28-1.23-2.28-.3 0-1.19-.83-.42-2.16-1.1-1.33-2.58-3.16-.56-5.15-2.62-2-1.56-4.15-1.75-6.15-3.13-2-1-3.82-.11-5.15-2.62-1.33.12-2.16-1.25-2.16-1.1a5.29 5.29 0 0 1-2.18-1.32c-1.31-.91-3-1.81-4.79-2.91-1.31-.6-6.65-.6-8.13 0-2 1.09-3.9 2-5.36 2.91a6.15 6.15 0 0 1-2.44 1.32c0-.15-.93 1.22-2.42 1.1-1.49 2.51-3.54 1.64-5.77 2.62-2.23 1.38-4.65 1.57-6.88 3.13-2.23 2.06-4.28 0-5.77 2.62-1.49.68-2.42-.09-2.42 1.1 0-.93-1 .69-2.56.3-1.57 2.8-3.74 1.37-6.1.72-2.36 1-4.92.48-7.28.86s-4.52.86-6.1.72c-1.57 1.25-2.56 1.31-2.56.3 0-.49-1.3.67-2.6.31-1.3.26-2.6-.86-2.6.31a2.92 2.92 0 0 1-2.05 1.74c-1.24.06-2.9 2.1-4.56 3.87-1.66 2-3.32 2-4.56 3.87a15.65 15.65 0 0 1-2.07 1.76c0-.68-.56-.14-1.58.24-1 1.27-2.48-.13-4.28.64-1.8 1-3.95.18-6.31.95a18.46 18.46 0 0 0-7.67 1.15c-2.71-.33-5.53 1.13-8.34 1.25-2.82 1-5.64 2.12-8.34 1.25-2.71 1.38-5.3.63-7.67 1.15s-4.51 2.92-6.31.95c-1.8 1.24-3.27-1.05-4.28.64-1-.06-1.58-.31-1.58.24 0 .84-.62 2.76-1.55 2.2-.93.61-2.18 3.08-3.42 4.84l-5 7-33.65-2.86-9.08 38.09 182.4.61h10.77z" class="68210318-3d55-4dee-a10c-6b55c4d13ecc"/>
      <path d="M22.28 82.15c0 1-.33 32.52-.33 32.52L710 108.23l.21-29.23L685 80.84l-8.36-7.59c-2.09-1.9-4.17-4.54-5.75-5.22-1.6.57-2.63-1.48-2.61-2.37 0-.57-1-.32-2.69-.29-1.7-1.82-4.24.57-7.29-.79-3.1 2-6.72-.42-10.74-1.16s-8.46.12-13-1.41c-4.62.86-9.41-.44-14.2-1.54-4.8-.2-9.58-1.82-14.2-1.54a49.24 49.24 0 0 0-13-1.41c-4-.87-7.68-.09-10.74-1.16-3.06-.86-5.58.58-7.29-.79-1.72-.42-2.67-1-2.69-.29a27.91 27.91 0 0 1-3.5-1.92c-2.09-2-4.92-2-7.71-4.22-2.8-1.92-5.59-4.12-7.71-4.22a4.76 4.76 0 0 1-3.5-1.92c0-1.24-2.22-.08-4.43-.39-2.22.36-4.43-.91-4.43-.39 0 1.07-1.69 1-4.35-.38-2.68.11-6.36-.6-10.38-.91s-8.38.08-12.39-1.09c-4 .63-7.74 2.09-10.38-.91-2.69.37-4.34-1.37-4.35-.38 0-1.26-1.58-.47-4.1-1.23-2.5-2.77-6-.68-9.79-2.93-3.78-1.71-7.9-2-11.68-3.49-3.79-1.1-7.29-.23-9.79-2.93a7.78 7.78 0 0 1-4.1-1.23 13.78 13.78 0 0 1-4.13-1.46c-2.48-1-5.79-2-9.09-3.22-3.31-.89-6.62-1.68-9.09-3.22-2.47-1.35-4.15-.22-4.13-1.46 0-.4-1.76-1-4.6-1.18-2.83-.55-6.71-2.78-11-2.81-4.27.76-8.86-1-13.09-3.36-4.25-.62-8.13-2.81-11-2.81C390.78 8.68 389 7.08 389 6c0 1.14-1.6-1.1-4.18-.57a33.51 33.51 0 0 1-10-1.37c-3.86-.74-8-1.75-11.9-1.63-3.86-.6-7.4-.85-10-1.37-2.58 0-4.19-.07-4.18-.57 0 0-1.23-1.85-3.28 1.26-2-1.27-4.8 2.35-7.82 3-3.06 3.44-6.32 3.48-9.33 3.58-3 .7-5.82 3.44-7.82 3-2 .31-3.31 3.36-3.28 1.26 0 1.2-.56 1.09-1.52 1.31-1 1.37-2.37 1.37-4.08 3.51-1.69.36-3.7 2.22-5.91 5.09-2.19 1.79-4.59 5.48-7 6a26.19 26.19 0 0 0-7.38 6.35c-2.44 2.09-4.77 1.23-7 6-2.26 6.21-4.2 3.55-5.91 5.09a17.54 17.54 0 0 0-4.08 3.51c-1 1.22-1.53 1.42-1.52 1.31 0-2.67-1.74-1.53-4.39-1.46-2.64-.59-6.14-3.12-9.67-3.22-3.5-2-7-1.78-9.67-3.22-2.65-.12-4.39-2-4.39-1.46 0-.06-1.25-.53-3.37 1.5-2.1.21-5 1.42-8.43 3.75-3.4 3.23-7.17 3.31-11 4.87a71.16 71.16 0 0 0-11 4.87c-3.36.93-6.32 2.94-8.43 3.75-2.14 3.05-3.38 1.8-3.37 1.5s-1.25.8-3.4.08a81.86 81.86 0 0 1-9 .21c-3.74 1.84-8.06 1.94-12.68.29-4.65.95-9.59.59-14.53.33-5 1.38-9.9.77-14.53.33-4.64.3-9 .92-12.68.29a55.43 55.43 0 0 0-9 .21 8.49 8.49 0 0 0-3.4.08 7.47 7.47 0 0 0-3 .56c-1.92-.59-4.7 1.51-8 1.49-3.31.44-7.2 2.45-11.32 2.1-4.14.54-8.56 1.54-13 2.41-4.43 1.56-8.82.9-13 2.41-4.13-.11-8 1.56-11.32 2.11s-6.08 1.56-8 1.49c-1.92-.33-30.15 6-30.15 6" class="68210318-3d55-4dee-a10c-6b55c4d13ecc"/>
      <path d="M0 126.16l12-65 13.21-5.89c3.3-1.47 7.23-3.93 9.08-4.05.81 1.51 3.38-.67 4.13-1.84.48-.76 1 0 2.42.91 2.92-1.56 2.94 2.78 6.57 2.48.78 4.17 5.79 2.69 9.68 3.65 3.78 1.13 6.74 4.23 11.76 4.43 3 3.35 8 3.95 12.8 4.82 4.06 2 9.3 2.23 12.79 4.82a29.65 29.65 0 0 1 11.76 4.43c4 .8 6.3 3.57 9.68 3.65 3.21.34 4 3.45 6.57 2.48 1.75.28 3 0 2.42.91a27.44 27.44 0 0 0 4.46-.82c3.43-1.67 5.69-.27 9.82-1.8 3.89-1.16 8-2.7 9.82-1.8a5.11 5.11 0 0 0 4.46-.82c1-1.63 1.87 1 3.92 1.62 1.5 1.54 4.36.94 3.92 1.62-.9 1.41.54 2.09 3.85 1.59 2.08 1.44 5.66 2.28 9.18 3.8 3.64 1.33 6.72 4.13 11 4.54 2.73 2.77 4.49 6.46 9.18 3.8 1.86 1.78 4.68.29 3.85 1.59 1.05-1.66 1.68.15 4.36.37 4.37-2.42 5.45 2 10.41.89 4.51-.42 8.07 1.22 12.42 1.06 4 .39 6.1 3.21 10.41.89 2 1.34 4.5.16 4.36.37.12-.19 1.39.73 4.59.08 2.86-.12 6.39.16 10.09.17 3.44.42 6.78 1 10.09.17 3.15-.58 3.55 1.71 4.59.08.3-.47 1.9-.51 3.95.33l-47.11 22zm638 20.5l-226.42-.8 11.35-50.09L465 99.53l6.22-9.25c1.55-2.31 3.11-5.56 4.28-6.36 1.17.74 1.94-1.79 1.94-2.89 0-.71.7-.38 2-.31 1.27-2.23 3.1.79 5.36-.84 2.26 2.59 4.93-.4 7.89-1.24 3-.69 6.2.3 9.59-1.51 3.38 1.15 6.91-.38 10.43-1.64 3.52-.16 7-2.08 10.43-1.64a22 22 0 0 1 9.59-1.51c3-1 5.64 0 7.89-1.24 2.26-1 4.09.83 5.36-.84 1.27-.49 2-1.21 2-.31a19.82 19.82 0 0 0 2.59-2.31c1.56-2.5 3.63-2.41 5.7-5.09 2.07-2.33 4.15-5 5.7-5.09a3.72 3.72 0 0 0 2.59-2.31c0-1.54 1.63-.06 3.26-.4 1.63.48 3.26-1.05 3.26-.4 0 1.33 1.23 1.25 3.2-.4 2 .19 4.67-.63 7.63-.94 3-.49 6.15.25 9.1-1.12 3 .86 5.66 2.73 7.62-.94 2 .51 3.2-1.62 3.2-.4 0-1.56 1.16-.55 3-1.45 1.86-3.39 4.42-.73 7.21-3.45 2.79-2.05 5.82-2.3 8.61-4.11 2.79-1.29 5.35-.15 7.21-3.45 1.86.16 3-1.65 3-1.45a7.55 7.55 0 0 0 3-1.74c1.83-1.2 4.27-2.39 6.71-3.83 1.83-.79 9.32-.79 11.38 0 2.73 1.44 5.46 2.63 7.51 3.83a8.84 8.84 0 0 0 3.41 1.74c0-.2 1.3 1.6 3.39 1.45 2.08 3.3 4.95 2.16 8.08 3.45 3.13 1.82 6.51 2.06 9.64 4.11 3.13 2.71 6 .05 8.08 3.45 2.08.89 3.39-.12 3.39 1.45 0-1.23 1.38.91 3.58.4 2.2 3.68 5.23 1.8 8.54.94 3.31 1.37 6.89.63 10.19 1.12 3.31.32 6.33 1.13 8.54.94 2.2 1.64 3.58 1.73 3.58.4 0-.65 1.82.89 3.65.4 1.82.34 3.65-1.14 3.65.4a4 4 0 0 0 2.9 2.31c1.74.08 4.06 2.76 6.39 5.09 2.32 2.68 4.64 2.59 6.39 5.09a21.67 21.67 0 0 0 2.9 2.31c0-.89.79-.18 2.21.31 1.42 1.67 3.47-.17 6 .84 2.53 1.27 5.52.24 8.84 1.24a27.38 27.38 0 0 1 10.73 1.51c3.79-.44 7.73 1.48 11.68 1.64 3.95 1.27 7.89 2.79 11.68 1.64 3.79 1.81 7.42.82 10.73 1.51 3.32.85 6.31 3.84 8.84 1.24 2.53 1.63 4.58-1.39 6 .84 1.42-.07 2.21-.4 2.21.31 0 1.1.87 3.63 2.18 2.89 1.31.8 3 4 4.79 6.36l7 9.25 47.11-3.76 12.71 50.09-255.34.8h-15.12z" class="e3fec279-883e-46b7-a80f-22261d6dc624"/>
      <path d="M1394.63 136c0 1 .23 21.42.23 21.42l-738.52 4.89-.18-29.53 27.09 1.9 9-7.65c2.24-1.91 4.48-4.58 6.17-5.26 1.72.57 2.82-1.49 2.81-2.39 0-.58 1-.33 2.88-.29 1.83-1.84 4.55.58 7.82-.8 3.33 2.06 7.21-.42 11.53-1.17s9.08.12 14-1.42c5 .87 10.1-.45 15.24-1.55 5.15-.2 10.28-1.84 15.24-1.55a56.12 56.12 0 0 1 14-1.42c4.32-.88 8.25-.09 11.53-1.17 3.29-.87 6 .59 7.83-.8 1.85-.42 2.87-1 2.88-.29a30.65 30.65 0 0 0 3.76-1.93c2.24-2.06 5.28-2 8.28-4.25 3-1.94 6-4.16 8.28-4.25a5.16 5.16 0 0 0 3.76-1.93c0-1.25 2.38-.08 4.76-.39 2.39.36 4.75-.92 4.76-.39 0 1.08 1.81 1 4.67-.39 2.88.11 6.83-.6 11.14-.92s9 .08 13.3-1.1c4.33.64 8.31 2.11 11.14-.92 2.89.37 4.66-1.38 4.67-.39 0-1.27 1.69-.47 4.41-1.24 2.68-2.8 6.46-.69 10.51-3 4.06-1.72 8.48-2 12.54-3.52 4.07-1.11 7.83-.23 10.51-3a8.71 8.71 0 0 0 4.41-1.24 15.47 15.47 0 0 0 4.44-1.48c2.66-1 6.21-2 9.76-3.25 3.55-.9 7.11-1.69 9.76-3.25 2.65-1.36 4.46-.22 4.44-1.48 0-.41 1.89-1.05 4.94-1.19 3-.55 7.2-2.8 11.78-2.84 4.59.77 9.52-1 14.06-3.39 4.57-.63 8.73-2.83 11.78-2.84 3.07 1.47 5-.14 4.94-1.19 0 1.14 1.71-1.11 4.49-.58a38.15 38.15 0 0 0 10.71-1.38c4.14-.74 8.62-1.77 12.78-1.64 4.14-.61 7.95-.85 10.71-1.38 2.77 0 4.5-.07 4.49-.58 0 0 1.32-1.87 3.52 1.27 2.13-1.28 5.15 2.37 8.39 3 3.28 3.47 6.78 3.51 10 3.61 3.24.71 6.25 3.47 8.39 3 2.16.31 3.55 3.39 3.52 1.27 0 1.21.6 1.1 1.64 1.32 1.06 1.38 2.54 1.38 4.38 3.54 1.81.36 4 2.24 6.35 5.13 2.35 1.81 4.93 5.53 7.52 6.08a27.74 27.74 0 0 1 7.92 6.4c2.62 2.1 5.12 1.25 7.52 6.08 2.42 6.26 4.51 3.58 6.35 5.13a18.54 18.54 0 0 1 4.38 3.54c1.05 1.23 1.64 1.43 1.64 1.32 0-2.69 1.87-1.54 4.72-1.48 2.83-.6 6.59-3.14 10.38-3.25 3.76-2 7.56-1.79 10.38-3.25 2.84-.13 4.71-2.06 4.72-1.48 0-.06 1.34-.54 3.62 1.51 2.25.21 5.41 1.43 9 3.78 3.65 3.26 7.69 3.33 11.76 4.91a78.94 78.94 0 0 1 11.76 4.91c3.61.94 6.79 3 9 3.78 2.3 3.08 3.62 1.82 3.62 1.51s1.34.81 3.65.08a93.52 93.52 0 0 0 9.62.21c4 1.85 8.66 2 13.61.29 5 1 10.29.6 15.6.34 5.33 1.4 10.63.77 15.6.34 5 .3 9.64.93 13.61.29a63.32 63.32 0 0 1 9.62.21 9.69 9.69 0 0 1 3.65.08 8.49 8.49 0 0 1 3.26.57c2.06-.59 5 1.53 8.6 1.5 3.55.45 7.72 2.47 12.15 2.12 4.44.54 9.19 1.56 13.93 2.43 4.75 1.57 9.47.9 13.93 2.43 4.43-.11 8.6 1.57 12.15 2.12s6.53 1.57 8.6 1.5c2.06-.33 32.37 6.08 32.37 6.08" class="e3fec279-883e-46b7-a80f-22261d6dc624"/>
      <path d="M37.52 165.17l1.69-2 10.31-.77c-.15.07-.12.12.21.16l2.4-.25c2.25.25-4.46.91-1.4.88-1.6.27-3.29.58-5.15.84-.93.13-1.9.25-2.93.34l-1.58.12c-.52 0-1.19.06-1.45.05l-.34-.19-.19-.09-.2-.06H39l.43-.06h1.6a12.24 12.24 0 0 0 1.68-.2 8.61 8.61 0 0 1-1.48.13h-1.79l-.29.06h-.34l-.76.18c-.51.13-1 .26-1.47.4m323.28 2.52l-3.07-1.44c-.66-.29-1.31-.6-1.94-.91a23.33 23.33 0 0 1-3.31-1.92c.72.67 1.43 1.34-.7.45-3.13-1.54-7.72-5.17-11-6-.35-.26-.45-.4-.43-.46-2.48-1.06-7.86-3.73-9.54-4.11-.37-.78-2-1.76-4-2.78-1-.51-2.13-1-3.23-1.53l-1.64-.75-.79-.36-.19-.09-.15-.07-.24-.1-.23-.18-.33-.27-.63-.53c-.4-.34-.74-.65-1-.92-.53-.55-.76-.94-.51-1.13l-6-5.11h.28a32.4 32.4 0 0 0-7-5.21c-.79-.83 0-.37.11-.36a59.46 59.46 0 0 0-11.13-9l-.07-.74a42.55 42.55 0 0 1-4.89-4.68 84.72 84.72 0 0 0-8-7.42 1.67 1.67 0 0 1 .76.39c-6.37-5.1-12.93-14-16.61-14.85l-4.26-3.33c4.91 4.77-1.41-.19.41 1.93-2.07-1.77-4.65-5.11-2.14-2.91l.3.41c1.68.22-6-6-5.29-6.32q-4.48-4.15-8.79-8.3l-9.11-8.8-3-.17-2.12-.13-4.21-.25q-4.19-.24-8.31-.44l1.55.77-4.82-.25c-1.25-.22-1.66-.62 1.77-.44a12.29 12.29 0 0 0-3.58-.12c-.62 0-1.18.12-1.6.18l-.5.09h-.87l-.83.11-.49.05h-.65c-.3 0-.35 0-.24-.12a3.81 3.81 0 0 1 .72-.3l.55-.18.89-.23h1.48c.23 0 .24 0-.14-.06h-1.35l-1.22.24-.88.17h.64a28.53 28.53 0 0 1-6.33 1.7c-2.6.32-1.42-.19-2.44 0 0 0-.35 0-1.55.26l-6 1 2.52.12c-2.57.74-5.6 1-2.7 1.09a31 31 0 0 0-4.9.41c-1.07.15-2.23.33-3.44.52l-2.84.47-5.47-4c-1.77-1.31-3.11-2.32-3.55-2.75a85.06 85.06 0 0 1-9.37-6.46c.77.72.8 1.57-2.13-.69 2.05-.15-4.69-4.25-6.59-6.76.14.23 0 .17-.45-.06-.24-.14-.56-.35-.92-.59l-.59-.41-.9-.63-1.45-.39-1.06-.28c-.68-.17-1.31-.33-1.77-.41-.93-.18-1.22-.12-.09.48-3.1-1 0-.51-2.26-1.49-2.26-.51-4.6-1.16-7-1.9-1.21-.37-2.44-.76-3.69-1.16l-1.89-.61-1-.31-1.42-.45-1.07.07-.85.05-1.45.08-2.93.18c-2 .13-4 .29-5.94.48-.13.18 1.53.3-.53.72l-5.23-.42c-1.91.24-1.66 1.11-5.23.82.51.1 1.28.25 0 .41q-3.33.13-6.69.35l-3.36.23-1.68.13-2 .16-2.83 1.16-2.52 1-5 2.11c-3.36 1.42-6.74 2.84-10.13 4.22-6.82 2.8-13.68 5.45-20.7 7.66 2.54-.67 1 0-.82.75 1.22-.41.19.39.54.5l-7.65 2.42c-1 1.12-7.82 3.25-8.27 4.11l2.26-1c-1.49 1 .21.84 2.05.61l-7.22 3H29.3L13.25 85l-.45 44.73 2.37 34.75a2.24 2.24 0 0 0 0-.25l-.25.12M199 70.69h1c-2.07.46-1.51.23-1 0zM65.76 163.43h.11c2.37-.03 1.53-.04-.11 0zm27.4-3.6l-1.27.15-.69.07-.67.07h-.22l-.28.05-.57.1-1.21.2c-.83.13-1.71.26-2.63.38-5.22.59-2.33-.35-3.23-.17-9.86.6-8.24 2-16.48 2.07-3.3-.27-.25-1-1-1.33 4.25-.51 6.59-.17 9.49-.4h-3.59a34.13 34.13 0 0 1 5.75-.58 14.23 14.23 0 0 0-1.45 0l15.41-1.15 4.83.13h-.13c-.59.19-1.27.31-2.07.41zm24.64.63c.17-.13-.31-.32-.68-.44l4.27.11a33.42 33.42 0 0 1-3.59.33zm28.44 1.61c-.52-.06-7.77-.91-9.45-1.31a1.18 1.18 0 0 1-.54-.24l5.18.13.08.73.65-.71 5.07.13a1.3 1.3 0 0 1-.99 1.27zm31.72.05a39.57 39.57 0 0 1-5.72.7l-1.16-.35-4.7.24c1.25-.32 3.46-.78 5.94-1.25l7.77.2c-.67.16-1.38.34-2.09.46z" class="d2d652c0-3ebc-486c-9325-e8be6b0ec8b3"/>
      <path d="M786.14 163.34a51.16 51.16 0 0 1-5.59-2.49 26.49 26.49 0 0 0-3.17-1.45c-.6-.22-1.13-.38-1.47-.47s-.49-.16-.34-.19l-.81-.06h-.81l-.11-.06-.24-.14-.33-.19-.36-.18a16.9 16.9 0 0 0-3.28-1.22c-2.42-.65-5.15-1-7.48-2-.3-.12-.57-.27-.85-.41a9.26 9.26 0 0 1-.81-.47l-.23-.14a1.32 1.32 0 0 0-.32-.16l-.52-.2-1-.39c-1.33-.52-2.68-1.05-4.07-1.58s-2.81-1-4.29-1.51c-.74-.23-1.49-.46-2.25-.67l-1.15-.3-.61-.14-.38-.09a3.88 3.88 0 0 0-.4 0h-.46a1.17 1.17 0 0 1-.24 0h-.11 1.17a2.6 2.6 0 0 1 .39.08l.52.11c.23 0 .29 0-.07-.07l-.77-.18-.8.07a3.55 3.55 0 0 1-.56 0h-.6a10.19 10.19 0 0 1-2.68-.72 32.12 32.12 0 0 1-3.13-1.51c-.58-.31-1.19-.64-1.88-1-.34-.17-.71-.33-1.09-.5l-.61-.24-.33-.11-.39-.12.47.12.42.12-.38-.13-.43-.13-.25-.08h-.62a5.31 5.31 0 0 1-1.19-.3 13.45 13.45 0 0 1-2.19-1.1c-.7-.41-1.36-.85-2.14-1.23a5.34 5.34 0 0 0-1.39-.48 3.18 3.18 0 0 0-.94 0h-.27a6.74 6.74 0 0 0-1.37-.7 5 5 0 0 0-1.16-.28 4.58 4.58 0 0 0-.52 0h-.2a5.89 5.89 0 0 0-.86-.29 6 6 0 0 0-1.13-.17 6.55 6.55 0 0 0-1.12 0h-.5l-.24.06-.25-.06-.41-.09-1-.17c-.63-.1-1.27-.17-1.9-.23-1.27-.11-2.53-.16-3.8-.16h-2.43a1.31 1.31 0 0 0-.34 0l-.31.07-.4.09-.42.06a15.5 15.5 0 0 1-3.58.07c-2.52-.2-5.19-.78-8.24-1.24a4.13 4.13 0 0 0-1.54 0l-1.16.16c-.78.1-1.57.2-2.37.28a26.51 26.51 0 0 1-5 .11l.78.13.8.1a16.36 16.36 0 0 1-4.7-.66 13.71 13.71 0 0 1-1.31-.48c-.2-.09-.41-.16-.6-.26l-.85-.42-.17-.07a.24.24 0 0 0-.16 0h-.32l-.48.05h-.31 1.13l.12.05.25.12.51.24.41.19.46.18.5.19.54.17c.36.13.76.2 1.15.3a20.49 20.49 0 0 0 4.27.42h.83a2.8 2.8 0 0 1-.85.1 24.85 24.85 0 0 1-3.22-.29 15.85 15.85 0 0 1-4.21-1.32l-.41-.19-.21-.1c-.07 0-.13-.09-.22-.06l-1 .06-1.45.09c-1 .06-2 .11-3 .15a34.15 34.15 0 0 1-6.09-.25 18.93 18.93 0 0 1-2.85-.62l-.37-.11-.5-.18-.5-.17-.25-.09a.42.42 0 0 0-.12 0l-.11.06-.85.47-.41.22-.29.14a13 13 0 0 1-2.37.88 10.44 10.44 0 0 1-2.33.32 8.41 8.41 0 0 1-3.63-.8 8.69 8.69 0 0 1-1.11-.65 4.65 4.65 0 0 1-.67-.53c-.33-.22-.49-.37-.92-.72l-.26-.21-.12-.1a.16.16 0 0 0-.14-.06h-1.75c-.27 0 0 0 .29.07h.34-3.07l-2-.14h-1.85c-.39 0-.75-.1-1.08-.15l-.65-.15c-.23-.06-.45-.13-.65-.17-.26.13-.54.28-.78.37h-.36a1.37 1.37 0 0 1-.57 0h-.09l-.16-.07-.3-.17a3.64 3.64 0 0 0-.56-.26 4.53 4.53 0 0 0-.79-.23h-.17l-.06.05-.16.1a2.87 2.87 0 0 0-.39.25v-.06l.12-.12a4.76 4.76 0 0 1 .45-.31l.07-.05a.14.14 0 0 1 .09-.05 1.38 1.38 0 0 1 .32 0 3.9 3.9 0 0 1 .75.18 8.37 8.37 0 0 1 .92.45h.23a1.36 1.36 0 0 0 .46-.08 1.17 1.17 0 0 1-.51 0h-.12l-.13-.06-.24-.13a3.35 3.35 0 0 0-1-.42 3.12 3.12 0 0 0-.4-.08 1.65 1.65 0 0 0-.37 0c-.08 0-.08 0-.11.06l-.1.06c-.08 0-.18.1-.3.18a2.08 2.08 0 0 0-.26.21 7.6 7.6 0 0 1-.56-.9c-.17-.32-.33-.65-.48-1l-.22-.5-.17-.4v-.16h-.06l-.22-.16-.35-.25-.23-.18-.45-.37c-.3-.25-.58-.5-.86-.75l-1.54-1.4c-.94-.85-1.68-1.5-2-1.81 1.6 1.36 3 2.8 4.45 4.09-1.51-1.28-3-2.75-4.68-4.15a22.66 22.66 0 0 0-2.85-2c-.25-.15-.64-.34-.66-.37l-.53-.49-1.2-1.1c-1.62-1.47-3.29-3-5.09-4.4-.9-.72-1.84-1.42-2.83-2.1q-.75-.51-1.53-1l-.73-.43-.72-.51a35.75 35.75 0 0 0-3.22-1.86 30.43 30.43 0 0 1-3-1.75 13.72 13.72 0 0 1-2.4-2 6.69 6.69 0 0 1-.5-.56c-.16-.19-.33-.38-.48-.58-.28-.4-.6-.79-.84-1.2l-.39-.61-.07-.11-.09-.12-.13-.16-.25-.3c-.33-.4-.69-.79-1-1.19-.71-.78-1.45-1.54-2.25-2.27a21.83 21.83 0 0 0-2.6-2.07 12.39 12.39 0 0 0-1.55-.89 9.64 9.64 0 0 0-.89-.38l-.37-.12H590a1 1 0 0 1-.1-.14l-.12-.19c-.13-.2-.27-.39-.41-.58a9.16 9.16 0 0 0-1-1.12c.15.17.27.34.4.51l.34.51c-.18-.21-.32-.42-.52-.62l-.28-.3-.34-.31-.42-.31c-.14-.1-.3-.18-.45-.26a2.72 2.72 0 0 0-1-.26 1.5 1.5 0 0 0-.51.06h-.1v-.05a.09.09 0 0 0 0-.08h-.18l-.19.09a2.54 2.54 0 0 0-.34.22c-.41.32-.82.78-1 1a7.5 7.5 0 0 1-1.5 1.12 4.1 4.1 0 0 1-.74.31 2.63 2.63 0 0 1-.38.09l-.63.07c-.26.19-.48.39-.71.58l-.55.38-.58.33-.62.3c-.85.38-1.83.7-3 1.14a17.06 17.06 0 0 0-3.94 2c-.32.25-.71.52-1 .8l-.14.13-.07.06a.11.11 0 0 1-.1 0h-.64a10.67 10.67 0 0 0-3.48 1.5l.47-.31c-1.34.82-2.64 1.89-4.07 3q-.54.4-1.1.8l-.58.37-.3.17-.24.13c-.16.06-.3.17-.49.12h-.6l-.77-.19c-.27-.07-.68-.18-1-.24.34.05.61.12.79.16l.29.06c.08 0 0 0-.25-.1a6.12 6.12 0 0 0-1.33-.27 2.67 2.67 0 0 0-.88.08 1.77 1.77 0 0 0-.73.4 2.22 2.22 0 0 0-.58.89l-.09-.19a1.11 1.11 0 0 1 .05-.14l-.06.13-.22-.46a15.5 15.5 0 0 0-1.28-2.21c-.64-.88-.91-1.25-3.37-4.09l-.22-.27a2 2 0 0 0-.35-.37 2.59 2.59 0 0 0-1.17-.71 7.56 7.56 0 0 1-1.07-.33l-.21-.08a1.35 1.35 0 0 1-.19-.11l-.18-.11-.15-.14a3.24 3.24 0 0 1-.52-.58 4.38 4.38 0 0 1-.4-.63l-.19-.34-.17-.38a25.12 25.12 0 0 1-1.62-5.43c1.2 4.75-.54-3.74.83 1.58-.15-.77-.26-1.5-.45-2.23s-.37-1.43-.59-2.1a16.15 16.15 0 0 0-1.69-3.76 9.78 9.78 0 0 0-1.29-1.62 17.37 17.37 0 0 0-1.52-1.33 11.1 11.1 0 0 1-2.29-2.32l-.11-.14a.34.34 0 0 1-.06-.09l-.15-.32-.3-.65-.62-1.24c-.42-.8-.82-1.57-1.24-2.3-.82-1.46-1.66-2.8-2.49-4.13-1.09-1.23-1.21-1.22-.76-.6s1.38 1.9 2.24 3.29c1.76 2.76 3.14 6 2.4 4.43.26.65.24.69 0 .34s-.6-1.1-1.13-2-1.2-2-1.93-3.13-1.52-2.14-2.19-3l-2-2.52-.16-.19-.08-.1-.12-.07a2.4 2.4 0 0 1-.39-.24 4.58 4.58 0 0 1-.59-.58 10.68 10.68 0 0 1-1-1.47c-.65-1.1-1.28-2.41-2.07-4-.39-.81-.82-1.7-1.33-2.68-.26-.49-.53-1-.85-1.54-.16-.27-.32-.54-.51-.82l-.11-.17v-.16l-.19-.44.25.56v.05l.05.07.13.19c.17.25.33.49.6 1-.12-.22-.25-.44-.38-.66l-.2-.33-.17-.27-.46-.72-.3-.67c-.41-.89-.86-1.78-1.34-2.7s-1-1.85-1.64-2.82c-.32-.48-.65-1-1.05-1.48a7.31 7.31 0 0 0-1.56-1.53l-.14-.08h-.08c-.05 0-.11 0-.13-.07a2.49 2.49 0 0 1-.19-.31c-.18-.32-.36-.65-.56-1a15.16 15.16 0 0 0-1.29-1.87c-.46-.57-.92-1-1.25-1.41a6.81 6.81 0 0 0-.76-.78 16 16 0 0 0 1.57 1.93 14 14 0 0 1 1.5 2.1c.22.36.4.73.59 1.09l.11.22.08.17.21.1.33.22a9 9 0 0 1 1.92 2 11.8 11.8 0 0 0-1-1.23 7.37 7.37 0 0 0-.66-.59 2.93 2.93 0 0 0-.39-.27l-.2-.12-.14-.06c-.12 0-.12-.11-.17-.18l-.14-.27c-.11-.22-.24-.44-.37-.66a14.83 14.83 0 0 0-.87-1.33 15.1 15.1 0 0 0-1.08-1.29c-.39-.43-.8-.85-1.15-1.3a7.62 7.62 0 0 1-.48-.7l-.21-.38-.22-.47s0-.09-.08-.11l-.16-.06-.32-.12-.32-.11-.21-.09a.78.78 0 0 1-.15-.11l-.06-.07v-.06a2 2 0 0 1-.17-.55 1.34 1.34 0 0 1-.16-.18l-.08-.09a.11.11 0 0 1 0 .07v-.06a.32.32 0 0 0 0-.07v-.11l-.05-.08-.18-.16a1.84 1.84 0 0 1-.05-.22v-.11a.5.5 0 0 1 0-.09v.16a.21.21 0 0 1-.05-.12v.08a1 1 0 0 0 .07.13 1.3 1.3 0 0 0 .28.36l-.08.07h.12a1.49 1.49 0 0 0 .31.17 1.63 1.63 0 0 1-.16-.08l-.14-.09-.09-.08a.93.93 0 0 1-.19-.26h.07l.05.07c.06.08.16.17.21.25h.06v-.1l-.13-.12-.15-.13h-.07l-.06-.07-.06-.16.09.14.12.14h.05l.09.09a2 2 0 0 0 .63.29 2.79 2.79 0 0 0 .18.85c.05.06.05.06.17.12l.83.31.23.09c0 .06.06.12.09.18l.16.36.08.17.06.11.12.23c.09.15.17.28.26.42a8.63 8.63 0 0 0 .63.81c.47.53 1 1.09 1.42 1.64a17.7 17.7 0 0 1 1.11 1.6 10.76 10.76 0 0 0-1-1.66c-.47-.63-1.09-1.28-1.59-1.87a7.49 7.49 0 0 1-.64-.89c-.09-.16-.17-.3-.26-.47l-.17-.37-.09-.18c0-.05 0-.14-.13-.15l-.9-.34h-.2a2.38 2.38 0 0 1-.1-.3 4.2 4.2 0 0 1-.08-.59 2.25 2.25 0 0 1-.6-.22c-.1-.06-.16-.09-.16-.1s0 0 .11 0l.2.06.45.08a3.27 3.27 0 0 1-.54-.12l-.18-.07-.13-.07a.67.67 0 0 1-.18-.16v.35c-.28-.46-.57-1-.93-1.48a7.8 7.8 0 0 0-.76-1 4.37 4.37 0 0 0-.56-.5 3 3 0 0 0-.93-.47h-.33l.28.08a3 3 0 0 1 1.09.58 5.13 5.13 0 0 1 .72.73 13.44 13.44 0 0 1 .97 1.42l.29.47v.35c-.22-.33-.44-.73-.68-1.09a12.09 12.09 0 0 0-.93-1.33 5.35 5.35 0 0 0-.63-.66 2.86 2.86 0 0 0-1-.59l-.22-.07-.32.08a.74.74 0 0 1-.51-.06 3.37 3.37 0 0 1-.75-.44c.1 0 .29.14.56.25a2.14 2.14 0 0 0 .41.13.31.31 0 0 0 .2 0l.25-.09h-.36a1.19 1.19 0 0 1-.33-.13 5.36 5.36 0 0 1-.93-.64c-.63-.52-1.24-1.14-1.88-1.76a27 27 0 0 0-2.14-1.92 11 11 0 0 0-1.36-.92l-.42-.22-.55-.25a5.24 5.24 0 0 0-.6-.05h-.51.82l-.8-.06-.72-.06a10 10 0 0 1-1.59-.27 6.9 6.9 0 0 1-2.99-1.67 7.49 7.49 0 0 0 3.69 1.55 6.93 6.93 0 0 1-2.4-.84 7.8 7.8 0 0 1-1.83-1.51c-.26-.29-.5-.59-.73-.89s-.44-.62-.63-.95-.39-.65-.56-1l-.65-1.28-.43-.2-.23-.11-.09-.05c-.11-.06-.23-.15-.34-.23a7.88 7.88 0 0 1-.68-.57c-.44-.41-.86-.88-1.28-1.35a32.07 32.07 0 0 0-2.75-3 18.57 18.57 0 0 1 1.51 1.57l1 1.2c.6.68 1 1.14 1.35 1.45.64.61.75.68.67.67s-.35-.16-.39-.15 0 .07.16.2a2.88 2.88 0 0 0 .31.25l.23.15c.17.1.37.19.59.29l.17.33c-.07-.12-.13-.24-.18-.32l-.38-.17-.19-.09-.1-.06c-.13-.06-.25-.15-.38-.23a7.55 7.55 0 0 1-.68-.53 15.16 15.16 0 0 1-1.14-1.11c-.68-.73-1.24-1.4-1.76-2a14.14 14.14 0 0 0-1.55-1.56 4.18 4.18 0 0 0-1-.63l-.35-.12a3.54 3.54 0 0 0-.43-.08.82.82 0 0 0-.3 0 .64.64 0 0 0-.2.09l-.07.06s0 .05 0 0l-.08-.34c0-.11 0-.19-.08-.31v-.1l-.07-.16-.15-.34-.17-.35c-.06-.12-.13-.24-.23-.4a3.34 3.34 0 0 0-1-1 2.41 2.41 0 0 0-.78-.33 2.24 2.24 0 0 0-.91 0 2.76 2.76 0 0 0-.81.3 2.65 2.65 0 0 0-.43.29l-.21.2-.11.12-.05.06 1.17.4a3.19 3.19 0 0 0-.21.36h-1.07l-.11-.09h-.09l-.35.05c-.58.06-1.42.06-2.34.06H468l-.29.09-.47.14-.33.09c-.44.12-.93.23-1.45.34-1 .22-2.23.43-3.55.68l2.76-.5 1.51-.3.69-.16.32-.08.37-.1a3.27 3.27 0 0 1 .51-.13h1.45-1.57l-.29.09-.23.07h-.17l-.71.18c-.49.12-1 .22-1.53.32-1.06.2-2.17.38-3.24.56s-2.11.36-3 .53l-1.29.26h-.55a17.07 17.07 0 0 0-2.62.12c-.73.08-1.31.19-1.79.29-1 .19-1.5.34-1.77.42-.54.16 0 0 .79-.12a24.21 24.21 0 0 1 2.4-.36c.51 0 .37 0-1.19.27a30.57 30.57 0 0 0-5.89 1.56l-1.34.48-.71.25-.83.28-.43.22-.35.18-.77.36a19.37 19.37 0 0 1-1.83.68l-.13-.14a21.24 21.24 0 0 1-4 .76c-.55 0-1 .08-1.48.09h-1.94a3.69 3.69 0 0 0-1.06 0 3.54 3.54 0 0 0-1.12.4 6.64 6.64 0 0 0-1.09.82l-.38.34-.22.2-.12.1h-.06v-.14a3.29 3.29 0 0 1 0 .38h-.18a.22.22 0 0 1 0-.07v-.12l-.08.09-.1.08-.12.08-.18.08-.22.08a2.6 2.6 0 0 1-.08.39 2.51 2.51 0 0 1-.11.35 3.53 3.53 0 0 1-.28.55 2.65 2.65 0 0 1-.44.54 1.42 1.42 0 0 1-.57.34 1.25 1.25 0 0 0 .44-.29 2.32 2.32 0 0 0 .38-.49 3.22 3.22 0 0 0 .26-.58 3.34 3.34 0 0 0 .18-.91 2.67 2.67 0 0 0 .88-.32 2.93 2.93 0 0 1-1 .29 3 3 0 0 1-.16.74 3.59 3.59 0 0 1-.16.39 2.83 2.83 0 0 1-.47.69 1.76 1.76 0 0 1-.25.21 1 1 0 0 1-.26.12 1.1 1.1 0 0 1-.63 0 .79.79 0 0 0 .61-.18.74.74 0 0 1-.47.22h-.17a.85.85 0 0 1-.18-.07l-.25-.13-.13-.08h-.11c-.33-.26-.6-.48-.86-.7a1.89 1.89 0 0 0-.4 0h-.41a6.28 6.28 0 0 0-.79.1 4.35 4.35 0 0 0-.74.15l-.55.17a16.66 16.66 0 0 0-1.71.74c-1 .51-1.88 1-2.77 1.5s-1.81 1-2.86 1.45c-.26.12-.53.23-.81.34s-.57.21-.87.31a4.23 4.23 0 0 1-.46.14l-.78.2L411 31s-.05 0-.08.06l-.15.13-.31.27-.38.34c.64-.48.57-.28-.23.51a22.87 22.87 0 0 1-1.85 1.62 21.17 21.17 0 0 1-3.23 2.16 10.8 10.8 0 0 1-1.05.47l-.41.15c-.12 0 0 0 0-.06s-.12 0-.77.26l-.27.09-.33.09a6.28 6.28 0 0 1-.85.19 6.69 6.69 0 0 1-2.55 0 7.57 7.57 0 0 0 3.14-.28 18.51 18.51 0 0 0 4.32-1.85c.28-.24 1.47-1.14 1.71-1.42a29.16 29.16 0 0 1-3.07 2 12.17 12.17 0 0 1-3.7 1.27 7.55 7.55 0 0 1-.91.1h-.44a2.62 2.62 0 0 1-.43 0 5.15 5.15 0 0 1-.81-.15l-.71-.19a.48.48 0 0 0-.22 0h-.63a11.63 11.63 0 0 0-3.22.65 15.61 15.61 0 0 1 1.71-.45c.42-.05.81-.13 1.18-.14h.79-.95l-1.07.17c-.33.08-.68.16-1 .26s-.63.2-.93.32a21.74 21.74 0 0 0-3.21 1.59c-1 .57-1.89 1.16-2.81 1.71l-.69.4-.69.37c-.23.11-.46.23-.69.3a.79.79 0 0 1-.21.07h-.37c-.64.05-1 .11-1.14.12s-.07 0 .14-.07a10.21 10.21 0 0 1 1-.18 1.45 1.45 0 0 0 .38-.06s.23-.09.39-.17l-.2.08-.15.06a.48.48 0 0 1-.2 0l-.56.06-.57.09a11.11 11.11 0 0 0-2.22.62 6.83 6.83 0 0 0-1.1.56 4 4 0 0 0-.53.4 2.33 2.33 0 0 0-.48.58 1.07 1.07 0 0 0-.12.34v.64-.13H379v-.31a1.72 1.72 0 0 1 .64-1.22 6.05 6.05 0 0 1 2-1.14l-.16.06a6.1 6.1 0 0 0-1.8 1 2.21 2.21 0 0 0-.68.94 2.41 2.41 0 0 0 0 .27.47.47 0 0 0 0 .13V45c-.23 0-.54 0-.85.1a6.16 6.16 0 0 0-1.14.3 6.48 6.48 0 0 0-1 .46 7.3 7.3 0 0 0-.77.54c-.52.41-.76.73-1.1 1a13.39 13.39 0 0 1-1 .89 24.26 24.26 0 0 1-2.85 1.71c-1.15.55-2.1.93-1.38.57-.78.36-1.63.73-2.54 1.13l-1.5.66-1.36.82-5.62 3.29-1.48.9-.74.47-.76.51a1.74 1.74 0 0 0-.28.23l-.13.13-.27.25c-.19.16-.37.33-.58.47a7.64 7.64 0 0 1-1.25.8 6.08 6.08 0 0 1-.67.29l-.36.12a4.61 4.61 0 0 0-.74.25l-.16.09a1.8 1.8 0 0 0-.27.22l-.36.37c-.17.17-.35.34-.53.49a4.52 4.52 0 0 1-1.13.71 2.63 2.63 0 0 1-.55.17h-.64L346 63a.71.71 0 0 0-.15.18c-.15.28-.4.72-.75 1.31l-.44.61c-.09.11-.2.22-.32.35l-.18.19-.21.18a5.72 5.72 0 0 1-2.42 1.12c-1 .23-2.18.36-3.43.64-.31.07-.62.16-.93.23l-.92.3-.92.38a1 1 0 0 0-.15.08l-.15.09-.16.1-.31.19a22.6 22.6 0 0 1-2.75 1.36c-2 .84-4.29 1.56-6.53 2.71-.28.14-.56.29-.83.45s-.55.31-.81.48-.53.33-.78.52l-.38.27-.2.14-.25.22-.54.5-.61.43c-.23.11-.44.24-.67.34a5.23 5.23 0 0 1-.75.25l-.31.06h-.34c-.22 0-.47 0-.72.05h-.81c-.3 0-.6 0-.92.07a8.46 8.46 0 0 0-1 .16l-.52.12-.51.18a4.74 4.74 0 0 0-.49.2l-.44.25a4.28 4.28 0 0 0-.76.54 5.77 5.77 0 0 0-1.27 1.63v.09s0 .06.24-.25a5.87 5.87 0 0 1 .66-.77 3.57 3.57 0 0 1 .34-.33l.29-.21c.14-.09.15-.07 0 .13l-.19.19-.21.27a5.93 5.93 0 0 0-.57.82l-.13.23-.06.12s-.09.06-.14.09l-.23.09a2.81 2.81 0 0 1-.39.12c-.14 0-.29.07-.44.1-.34.06-.61.07-1.36.15a3 3 0 0 0-1.19.33h-.82l-.22.05h-.13l-.23.09-.17.07-.12.06c-.3.16-.47.27-.65.38l-.47.27a2.81 2.81 0 0 1-.72.28h-.23l-.37-.07-1.61-.18-.32.57c.11-.2.22-.39.32-.56l1.14.26.55.12.26.05h.47a4.9 4.9 0 0 0 1-.44l.59-.33.2-.1.29-.12.2-.07.32-.08h.51a1.32 1.32 0 0 0-.48.52 2.38 2.38 0 0 0-.41.15l-.24.12-.34.19a6.74 6.74 0 0 1-.79.41c-.35.14-.42.12-.44.09s0-.08-.06-.09-.29.07-.72.09h-.31l-.47-.08-1-.21a2.59 2.59 0 0 0-.33.55c-.11.2-.21.42-.32.6l-.33.58-.22.34a4.36 4.36 0 0 1-1.1 1.16 2.57 2.57 0 0 1-1.57.48 8.31 8.31 0 0 1-2.34-.45c-.86-.27-1.77-.61-2.75-.95l-.21-.07-.28-.09-.57-.18-.58-.18a5.4 5.4 0 0 0-.53.21l-.54.23-.25.11-.16.06c-.22.07-.43.16-.66.22a21.4 21.4 0 0 1-6.28.58 38 38 0 0 0 4.27-.26c.32 0 .63-.09.93-.16s.6-.13.9-.22.57-.19.87-.28h.11l.19-.08.38-.16.53-.22c-.35.13-.7.29-1.05.42h-.17l-.19.06-.37.12-.77.19-.8.15a24.26 24.26 0 0 1-3.45.22 17 17 0 0 0 5.29-.9l.25-.09.46-.2.95-.41h.25l.25.07.48.15.92.29 1.63.55c.83.28 1.2.38 1 .3s-.88-.38-2.52-1a8.61 8.61 0 0 1-.91-.21l-.82-.22h-.24l-.23.1-.49.22-.53.24-.26.11-.14.05c-.19.07-.38.16-.61.23s-.46.14-.72.21-.53.13-.83.17a27.69 27.69 0 0 1-4.36.31c-.85 0-1.76 0-2.71.07-.48 0-1 .05-1.46.11-.25 0-.49 0-.75.09l-.62.09c-1.9.22-3.71.56-5.35.86a35.48 35.48 0 0 1-4.33.62h-1.95l-.07.05-.5.43-.69.58c-.15.13-.29.23-.42.34l-.24.2-.12.11a.56.56 0 0 0-.11.15 1 1 0 0 1-.43.07.32.32 0 0 1-.29-.22.72.72 0 0 1 0-.31.12.12 0 0 0 0-.05v-.14a1 1 0 0 0-.18-.27 1.44 1.44 0 0 0-.44-.3l-.29-.09h-.26a2.36 2.36 0 0 0-.67 0h-.33l-.22.07-.34.12c.17-.07.34-.14.58-.21h.53a2.36 2.36 0 0 1 .5 0 1.82 1.82 0 0 1 .68.22 1.44 1.44 0 0 1 .26.19l.13.16a.64.64 0 0 1 .11.22v.15a.45.45 0 0 0 .14.29.39.39 0 0 1-.09-.27v-.18a1.4 1.4 0 0 0-.05-.15 1.29 1.29 0 0 0-.21-.28 1.61 1.61 0 0 0-.46-.3 2.17 2.17 0 0 0-.55-.14 2.62 2.62 0 0 0-.41 0h-.45a4.86 4.86 0 0 0-.74.24l-.45.18-.7.27a4.45 4.45 0 0 1-1 .25 2.08 2.08 0 0 1-.34 0h-.24l-.5-.12-.4.08-.3.05h-.28a4.18 4.18 0 0 1-.71 0l-.46-.08-.82-.18a4.22 4.22 0 0 0-1.71 0 1.5 1.5 0 0 0-.75.4 1.48 1.48 0 0 0-.38.68 2.51 2.51 0 0 0-.07.42 2.6 2.6 0 0 1-.05.37 3.43 3.43 0 0 1-.26.53 5.67 5.67 0 0 1-.94 1.18 4 4 0 0 1-1.54 1l-.32.08a4.47 4.47 0 0 0-1.67.52 8.43 8.43 0 0 0-1.06.67c-.58.43-1 .78-1.24 1-.52.46-.55.42.31-.42a32.83 32.83 0 0 0-2.68 2.9l-2.4 2.92-.77.88c-.15.17-.2.21-.18.16a4.91 4.91 0 0 1 .33-.46l.16-.2-.24.29c-.15.18-.29.37-.44.54l-.46.51a14.31 14.31 0 0 1-2.21 1.85c-.83.58-1.77 1.15-2.65 1.84a10.63 10.63 0 0 0-2.17 2.3v-.08l-.17.29-.09.16v.13l-.14.16-.3.33c-.41.45-.89.95-1.38 1.44l-.57.57c-.14.14-.28.28-.43.41h-.11a1 1 0 0 0 0-.11.29.29 0 0 0-.09-.2h-.31a1.87 1.87 0 0 0-.5.1 3.85 3.85 0 0 0-.5.22c-.82.39-1.06.5-1.09.5s.22-.13.54-.3l.55-.28.34-.15a2.24 2.24 0 0 1 .48-.13h.5a1 1 0 0 0-.25 0 2 2 0 0 0-.47.08 3.47 3.47 0 0 0-.5.2c-.26.12-.47.24-.69.36l-.62.32-.31.15-.5.21-.39.47c-.08.1-.19.16-.28.25l-.3.17a1.63 1.63 0 0 1-.35.09 8.54 8.54 0 0 1-2.12-.14 6.49 6.49 0 0 1-.92-.17 4.24 4.24 0 0 1 .91 0 16.32 16.32 0 0 0 1.85.15 2.13 2.13 0 0 0 .38 0 1.25 1.25 0 0 0 .3-.13 1.59 1.59 0 0 0 .31-.23.35.35 0 0 0 .08-.08l.1-.12.3-.35.34-.14.28-.12.39-.18.82-.42c.15-.08.31-.16.51-.24a3.24 3.24 0 0 1 .39-.13h.77a.16.16 0 0 1 .1.11.56.56 0 0 0 0-.06.17.17 0 0 0-.06-.09h-.09a2.31 2.31 0 0 0-.51 0 4 4 0 0 0-.85.26l-.49.21-.78.35-.34.14-.63.25-.4.45-.09.1-.09.06c-.06 0-.11.11-.16.12l-.14.07a1.08 1.08 0 0 0-.14 0h-.87c-.56 0-1.31-.19-2.32-.23a6.89 6.89 0 0 0-.8 0 6.45 6.45 0 0 0-.88.09 7.09 7.09 0 0 0-.91.21c-.3.09-.58.22-.88.34h-.07a7.17 7.17 0 0 1-3.31.85c-.76 0-1.64 0-2.64.06a23.63 23.63 0 0 0-3.38.25c2.8-.53 5.57-.18 7.51-.63a13.65 13.65 0 0 1-1.6.12H211a21.66 21.66 0 0 0-4.88.42c-.22.05-.45.09-.67.16l-.31.09h-3.7a36.19 36.19 0 0 0-6.36.84c.53-.1 1.92-.39 3.61-.57a32.84 32.84 0 0 1 5.24-.14c.38 0 .79 0 1.08.08h.56l.31-.06h.38c.13 0 0 0-.42.17l-.38.13h-.21a.26.26 0 0 1-.12 0h-.97a29.74 29.74 0 0 0-4.6.16 30.37 30.37 0 0 0-6.07 1.33 2.6 2.6 0 0 0-.85.17l-.92.29-.56.2-.14.05h-2.91l-.5.06a31.58 31.58 0 0 0-4.13.83l.27-.3c-1.51.4-2.55.72-3.36.94l-1.88.51-.71.18c-.23.05-.47.12-.72.16s-.53.11-.84.14h-1.08l-.43.17c-6.16 2.35-7.55 2.31-9 2.42a13.25 13.25 0 0 1-2.44.12 6.49 6.49 0 0 0-.66 0 2.43 2.43 0 0 0 .43.1c.27 0 .63.07 1 .09h1.19a6.2 6.2 0 0 1-1.14.12 5.48 5.48 0 0 1-.57 0 5.76 5.76 0 0 1-.7 0 7.12 7.12 0 0 1-.82-.11l-.46-.09h-.13l-.21-.06-.44-.13-.62-.19h-.15s-.09 0-.13.05l-.26.13-1 .51c-.44.17-.86.36-1.32.48a14.54 14.54 0 0 1-2.77.56c-1.91.22-3.92.14-6.15.29l-.84.08-.86.12a9.6 9.6 0 0 0-1.77.44 21.68 21.68 0 0 0-3 1.39c-.93.5-1.85 1-2.83 1.46a6.28 6.28 0 0 1-1.46.44 3.19 3.19 0 0 1-.67 0 2.5 2.5 0 0 1-.63-.16 2.45 2.45 0 0 1-.38-.21l-.17-.12-.24-.22a4.18 4.18 0 0 1-.4-.4l-.31-.34-.38-.44-.05-.07c-.11.07-.08 0 0 0h.1l.13.13.33.33a9.86 9.86 0 0 0 .78.74l.17.14a.8.8 0 0 0 .13.09h.09l-.23-.21c-.5-.41-.93-1-1.36-1.31-.44.32-.94.66-1.41 1a2 2 0 0 1-.84.31 4.2 4.2 0 0 1-1.6-.19 7 7 0 0 1-.9-.31h.28l-.67-.17a5.59 5.59 0 0 0-.76-.12 3.4 3.4 0 0 0-1.13.09 2.28 2.28 0 0 0-.95.48 1.6 1.6 0 0 0-.2.2 1 1 0 0 0-.16.19 2.72 2.72 0 0 0-.24.44c0 .05-.08 0-.13 0h-1.21a3.53 3.53 0 0 0-.81 0 1.45 1.45 0 0 0-.3.07 1.1 1.1 0 0 0-.31.14.91.91 0 0 0-.36.4.66.66 0 0 0-.06.19.87.87 0 0 0 0 .17v.29a4.26 4.26 0 0 1-.24 1.85 6.28 6.28 0 0 1-.64 1.46 2.2 2.2 0 0 1-.56.64h-.12l-.12-.07-.52-.32-.48.34a6.71 6.71 0 0 0-1.29 1.26c-.36.44-.68.89-1 1.36-.63.93-1.22 1.9-1.8 2.87l-1.7 2.9-1.64 2.73c-1.05 1.46.29-.77-.11-.35l-4.54 7.3-1.79 2.21-.92 1.52-.55.91-.43.74a7.84 7.84 0 0 1-.83 0l-9-1c6.6.77-1.91.19-9.36-.33l1 .13-2.57-.23 1.56.11-1.33-.17-1.74-.08-5.83-.6a29.48 29.48 0 0 1 3.38.09l4.24.52c2.95.14 5.71.24 5.13.06-.77 0-2.26-.16-3.89-.3H86s-1.64-.12-3.59-.25l-2.65-.49h-.67l-15.46-1.57-10.29-.69-5.34-.27-2.83-.2-3.17-.23-4.34 4.78c-1.52 1.66-3.18 3.45-5 5.4 2.22-2.66.18-.71.05-1 1.09-1 2.4-2.36 3.88-3.95l5.17-5.61 3.94.34 3.52.32c-4.75-.46-3.69-.46-2.47-.39l-5.08-.41-6.75 7.36c0-.31-2.08 2-4.54 4.4.61-.47.38-.12-.34.71-.36.42-.84.94-1.42 1.57M379.22 45.4zm.08 0h-.07zm0-.09zm.06.13h.06-.07zm0-.07v.05zm-.14 0zm-.13 0zm127.65-5.1zm0 0zm0 0zm0 0zm0 0zm0 0zm.06-.06zm.06 0zm-.08.07zm0 0zm0 0zM507 40zm0 0zm-.22.22zm-.06.06zm0 0zm0 0zm0 0zm0 0zm0 0zM308.07 82.94zM507 40.07zm.13-.23zm-.22-.34l.06.09v.37-.05c-.02-.11-.03-.25-.04-.41zm-.85-.74l.43.66c.12.18.25.38.37.53a2 2 0 0 1 0 .21l-.09-.1c-.33-.45-.6-1-.93-1.53a7.88 7.88 0 0 0-1.24-1.65 7.77 7.77 0 0 1 1.48 1.88zm-77.31-14a1 1 0 0 1 .12.19h-.11a1.52 1.52 0 0 1 0-.19zm-49.3 20.75zm0 0zm-.23-.16h-.15zm-174.43 70.04h.31a.42.42 0 0 0 .2 0h.18l.28-.09a15.86 15.86 0 0 1 2.46-.48 30 30 0 0 1 3.94-.14c-1.19.13-2.32.15-3.65.26a18.14 18.14 0 0 0-2.16.31l-.6.13-.47.13a.57.57 0 0 1-.28 0h-.66zm-129 39.29c-2-.17-4.32-.39-6.86-.66 1.57.08 4.07.34 6.81.66z" class="d2d652c0-3ebc-486c-9325-e8be6b0ec8b3"/>
      <path d="M1322.21 162.27h-.11.25-.19.32-.26.07-.2.17c.07 0 0 0 0 0h.31-.67.59-.2.06s-.36 0 0 0h-.06.19c-.07 0 .19 0 0 0h.21-.55c-.07 0 0 0 0 0h.18c.16 0 .06 0 0 0h.29l11.51-1.55-13.86 1.5a4.06 4.06 0 0 0-2.4-.49c-2.12 0-5.15-.9-8.78-1.44-1.75-.26-3.64-.75-5.63-1.18-1.07-.27-2.21-.52-3.19-.69-.61-.1-1.14-.18-1.48-.23s-.5-.08-.35-.09h-1.71l-.24-.07-.33-.09-.36-.08a31 31 0 0 0-3.31-.58c-2.43-.31-5.19-.47-7.54-1-.3-.06-.57-.13-.86-.2s-.55-.15-.82-.22l-.23-.07a2.19 2.19 0 0 0-.32-.08l-.52-.09-1-.18-4.1-.75c-1.4-.25-2.84-.49-4.32-.72-.74-.11-1.5-.22-2.27-.32l-1.16-.14-.62-.07h-.86.81l.52.05h-.07l-.78-.08h-1.99a20.09 20.09 0 0 1-2.7-.34c-1-.18-2-.43-3.15-.72-.59-.14-1.2-.3-1.89-.46l-1.1-.24-.62-.11-.33-.05-.56-.49.48.06.42.06-.39-.06-.44-.06h-.88a10.55 10.55 0 0 1-1.2-.14 22.21 22.21 0 0 1-2.21-.52c-.7-.2-1.37-.4-2.16-.58a9.94 9.94 0 0 0-1.4-.23 6.76 6.76 0 0 0-.95 0h-.27a11.06 11.06 0 0 0-1.38-.33 10 10 0 0 0-1.17-.13h-.78c-.08 0-.53-.1-.87-.14s-.75-.07-1.14-.08-.77 0-1.13 0h-1.42l-1-.08q-1-.07-1.92-.11c-1.28-.05-2.55-.07-3.83-.08H1230a2.77 2.77 0 0 0-.34 0h-1.14a33.06 33.06 0 0 1-3.61 0c-2.54-.09-5.23-.37-8.3-.59a8.77 8.77 0 0 0-1.55 0l-1.17.07-2.39.13c-1.62.08-3.29.12-5 .05l.79.06h.81a34 34 0 0 1-4.74-.31c-.5-.08-.92-.14-1.32-.23-.2 0-.41-.07-.61-.12l-.86-.2h-.17a.48.48 0 0 0-.17 0h-1.06 1.18l.25.06.52.12.41.09.47.09.5.09.54.08c.36.06.77.1 1.16.14 1.6.17 3.32.2 4.3.2h.84a5.8 5.8 0 0 1-.85 0c-.8 0-1.93 0-3.25-.14a30.38 30.38 0 0 1-4.24-.63l-.41-.09h-.21a.67.67 0 0 0-.22 0h-2.46l-3 .07c-2 0-4.14 0-6.13-.12-1-.07-2-.16-2.87-.29l-.38-.05-.51-.08-.51-.08h-.48l-.86.22-.41.11-.3.07a23.94 23.94 0 0 1-2.39.42 21.82 21.82 0 0 1-2.35.15 16.8 16.8 0 0 1-3.66-.38c-.44-.11-.83-.21-1.12-.31a5.8 5.8 0 0 1-.68-.25c-.33-.11-.5-.18-.93-.34l-.26-.1h-.12a.27.27 0 0 0-.14 0h-1.47.34-3.08l-2-.07h-1.87l-1.08-.07-.65-.07-.66-.08c-.26.06-.54.13-.78.18h-.41a2.89 2.89 0 0 1-.58 0h-.25l-.31-.08c-.2-.05-.4-.09-.57-.12-.35-.06-.57-.09-.79-.11a.46.46 0 0 0-.17 0h-.23l-.39.12h-.05l.12-.05c.17-.07.34-.11.45-.15h.07a.21.21 0 0 1 .09 0h.32c.21 0 .46 0 .76.09s.62.15.93.21h.33a2.79 2.79 0 0 0 .47 0 2.45 2.45 0 0 1-.52 0h-.29l-.25-.06a5.88 5.88 0 0 0-1-.2h-.4a3.5 3.5 0 0 0-.38 0 .31.31 0 0 0-.11 0h-.1l-.3.08-.26.1a4.68 4.68 0 0 1-.56-.43c-.17-.15-.34-.31-.49-.47l-.22-.24-.17-.19v-.05h-.06l-.22-.08-.35-.12-.23-.09-.46-.18-.87-.36-1.55-.66c-.94-.4-1.69-.71-2.06-.86 1.61.64 3 1.33 4.48 1.94-1.52-.61-3-1.3-4.72-2-.87-.33-1.8-.66-2.88-1l-.66-.17-.54-.23-1.21-.52c-1.63-.7-3.31-1.4-5.13-2.08-.91-.34-1.85-.68-2.85-1l-1.55-.47-.74-.21-.72-.24c-1-.33-2.16-.61-3.25-.88s-2.11-.53-3-.83a16.09 16.09 0 0 1-2.41-1c-.18-.09-.35-.18-.51-.27l-.48-.27c-.28-.19-.6-.37-.85-.57l-.39-.29-.07-.05-.09-.06-.13-.08-.25-.14c-.33-.19-.69-.38-1-.56-.71-.37-1.46-.73-2.26-1.08a27.2 27.2 0 0 0-2.62-1c-.48-.15-1-.3-1.56-.42-.28-.07-.59-.12-.9-.18l-.37-.06h-.22l-.1-.07-.12-.09-.41-.28a8 8 0 0 0-1-.53c.15.08.27.16.41.24l.34.24c-.18-.1-.33-.2-.52-.3l-.28-.14-.34-.15-.42-.15-.45-.12a5.37 5.37 0 0 0-1-.12 3.14 3.14 0 0 0-.51 0h-.1a.38.38 0 0 0-.19 0h-.2l-.34.1c-.41.15-.82.37-1 .45a9.86 9.86 0 0 1-1.51.53 7.24 7.24 0 0 1-.74.15h-1.01c-.26.09-.48.18-.72.27l-.56.18-.59.16-.62.14c-.86.18-1.85.33-3 .54a28.12 28.12 0 0 0-4 1c-.33.12-.72.25-1 .38l-.14.06h-.07a.18.18 0 0 1-.1 0h-.64a18.65 18.65 0 0 0-3.51.71l.47-.15c-1.35.39-2.66.9-4.1 1.41l-1.11.38-.59.18-.31.08-.24.06a1.46 1.46 0 0 1-.5.05h-.6l-.78-.09c-.27 0-.69-.09-1.05-.11l.8.07h.05a12.45 12.45 0 0 0-1.34-.13 5.64 5.64 0 0 0-.88 0 2.78 2.78 0 0 0-.74.19 1.43 1.43 0 0 0-.58.42l-.09-.09.05-.07-.06.06-.22-.22a9.08 9.08 0 0 0-1.29-1c-.65-.42-.92-.59-3.39-1.94l-.22-.13a1.9 1.9 0 0 0-.35-.17 3.81 3.81 0 0 0-1.18-.34c-.48-.06-.83-.1-1.08-.16h-.21l-.19-.05-.18-.05-.15-.07a3 3 0 0 1-.52-.27 2.82 2.82 0 0 1-.41-.3l-.2-.16-.17-.18a8.38 8.38 0 0 1-1.63-2.58c1.2 2.26-.54-1.78.84.75a10.4 10.4 0 0 0-.45-1.06 8.8 8.8 0 0 0-.6-1 7.25 7.25 0 0 0-1.7-1.78 7.93 7.93 0 0 0-1.3-.77c-.49-.23-1-.44-1.53-.63a11.11 11.11 0 0 1-2.31-1.1l-.11-.07h-.06l-.15-.15-.31-.31-.62-.59c-.42-.38-.83-.74-1.25-1.09-.83-.69-1.67-1.33-2.51-2-1.1-.58-1.22-.58-.77-.29s1.39.9 2.26 1.56a11.32 11.32 0 0 1 2.41 2.1c.27.31.24.33 0 .16s-.61-.52-1.14-1-1.21-1-1.94-1.48-1.53-1-2.21-1.42l-2-1.2-.16-.09h-.2a3.48 3.48 0 0 1-.39-.12 4.77 4.77 0 0 1-.59-.27 7.47 7.47 0 0 1-1-.7c-.66-.52-1.29-1.15-2.08-1.92-.4-.39-.83-.81-1.34-1.27-.26-.23-.54-.48-.85-.73l-.51-.39-.11-.08v-.05l-.2-.21.25.27h.05l.13.09c.17.12.34.23.61.45l-.38-.31-.2-.16-.17-.13-.27-.3-.3-.32c-.41-.42-.86-.85-1.35-1.28s-1-.88-1.65-1.34c-.32-.23-.66-.46-1.06-.7a7.63 7.63 0 0 0-1.57-.72h-.36a1.5 1.5 0 0 1-.19-.15l-.57-.47a10.53 10.53 0 0 0-1.3-.89c-.47-.27-.92-.5-1.26-.67a6.87 6.87 0 0 0-.77-.37 13.21 13.21 0 0 0 1.58.91 10.06 10.06 0 0 1 1.51 1c.22.17.41.34.59.52l.11.11.08.08h.21l.34.1a8.67 8.67 0 0 1 1.93 1 10.17 10.17 0 0 0-1-.58c-.21-.09-.41-.19-.67-.28l-.39-.13-.2-.06h-.14c-.12 0-.12-.05-.17-.09l-.52.02c-.11-.11-.25-.21-.37-.32a9.69 9.69 0 0 0-.87-.63c-.32-.21-.7-.42-1.09-.62s-.81-.4-1.16-.62a5.23 5.23 0 0 1-.48-.33l-.21-.18-.22-.22-.08-.05h-.16l-.36-.03-.32-.05h-.21l-.16-.05h-.06a.65.65 0 0 1-.17-.26l-.16-.09h.08-.08v-.05h-.05l-.07-.06a.53.53 0 0 1-.05-.1V101l-.05-.06.07.06a1 1 0 0 0 .28.17h-.08.12l.31.08h-.49a.71.71 0 0 1-.2-.12h.12l.21.12h.06l-.13-.06-.15-.06h-.07a.15.15 0 0 1-.06 0l-.06-.08.09.07.12.07h.14a3.48 3.48 0 0 0 .63.14.78.78 0 0 0 .18.4.42.42 0 0 0 .17.06l.84.15h.24l.09.08.17.17.08.08.06.05.12.11.26.2a6.86 6.86 0 0 0 .64.38c.47.25 1 .52 1.43.78a12.33 12.33 0 0 1 1.12.76 6.63 6.63 0 0 0-1-.79c-.47-.3-1.1-.61-1.6-.89a5.42 5.42 0 0 1-.64-.42l-.26-.22-.18-.18-.09-.09s0-.06-.13-.07l-.9-.16h-.24a.83.83 0 0 1-.1-.14 1 1 0 0 1-.08-.28 4.1 4.1 0 0 1-.61-.1h-.16.76c-.21 0-.44 0-.54-.05h-.31a.75.75 0 0 1-.18-.08.86.86 0 0 0 0 .12v-.16.15c-.29-.22-.58-.46-.93-.7a6.23 6.23 0 0 0-.76-.46 4.77 4.77 0 0 0-1.5-.46h-.33.28a4.75 4.75 0 0 1 1.1.28 5.17 5.17 0 0 1 .72.34 9.14 9.14 0 0 1 1.14.79l.29.23a1.46 1.46 0 0 1 0 .16c-.22-.16-.45-.34-.68-.52a8.51 8.51 0 0 0-.93-.63 5.25 5.25 0 0 0-.64-.31 4.38 4.38 0 0 0-1.05-.28h-.54a1.54 1.54 0 0 1-.52 0 5.14 5.14 0 0 1-.75-.21l.56.12.41.06a.64.64 0 0 0 .2 0h.25-.36l-.33-.06a7.41 7.41 0 0 1-.93-.3c-.63-.25-1.25-.54-1.9-.84s-1.34-.61-2.16-.91c-.41-.15-.85-.3-1.37-.44l-.43-.11-.55-.12h-1.11.82-1.54c-.51 0-1.06-.06-1.6-.13a11 11 0 0 1-2.95-.73 13.09 13.09 0 0 0 3.72.74 12.88 12.88 0 0 1-2.42-.4 9.41 9.41 0 0 1-1.85-.72c-.27-.14-.5-.28-.74-.42s-.44-.3-.63-.45-.39-.31-.56-.46l-.66-.61-.43-.09-.23-.05h-.09l-.34-.11c-.23-.08-.46-.17-.68-.27-.45-.2-.87-.42-1.29-.64a30.42 30.42 0 0 0-2.77-1.4c.66.28 1.11.53 1.52.75l1 .57c.6.32 1 .54 1.36.69.65.29.76.32.67.32s-.35-.08-.39-.07 0 0 .16.09l.31.12.24.07.59.14.17.16-.18-.15-.38-.08h-.3l-.38-.11c-.24-.08-.48-.16-.69-.25-.43-.18-.81-.36-1.15-.53-.69-.35-1.25-.66-1.78-.94a14.37 14.37 0 0 0-1.56-.74 6.11 6.11 0 0 0-1-.3l-.36-.06h-.43a1.73 1.73 0 0 0-.3 0h-.27l-.08-.16-.08-.15-.07-.08-.15-.16-.17-.17-.23-.19a3.24 3.24 0 0 0-1-.48 4.24 4.24 0 0 0-.79-.16 4.76 4.76 0 0 0-.92 0A5.08 5.08 0 0 0 993 89a3.67 3.67 0 0 0-.43.14l-.22.1-.11.06h-.05l1.17.19a1.8 1.8 0 0 0-.21.17H988l-.47.07h-.33l-1.46.16c-1 .1-2.24.21-3.58.32l2.78-.24 1.52-.14.69-.08h.69c.17 0 .35-.06.51-.06h1.47-2.36l-.72.09-1.55.15-3.27.26-3.05.25-1.3.12H977c-1 0-1.92 0-2.64.06s-1.32.09-1.81.14c-1 .09-1.51.16-1.79.2-.55.07 0 0 .79-.06s1.91-.15 2.42-.17.38 0-1.2.13c-2.54.18-4.18.45-5.94.74l-1.35.23-.71.12-.83.13-.43.1-.36.09-.78.17c-.55.11-1.16.22-1.85.32l-.13-.07c-1.58.22-2.94.31-4 .36h-3.45a7.85 7.85 0 0 0-1.07 0 6.5 6.5 0 0 0-1.12.19 8.63 8.63 0 0 0-1.1.39l-.38.16-.22.09h-.18v-.06a.73.73 0 0 1 0 .18h-.88a.7.7 0 0 1-.08.18.88.88 0 0 1-.11.16 1.79 1.79 0 0 1-.28.26 2.21 2.21 0 0 1-.45.26 2.14 2.14 0 0 1-.58.16 1.75 1.75 0 0 0 .44-.14 1.8 1.8 0 0 0 .38-.23 1.45 1.45 0 0 0 .26-.27.93.93 0 0 0 .19-.43 4.86 4.86 0 0 0 .89-.15 5.59 5.59 0 0 1-1 .14.84.84 0 0 1-.16.35 1.49 1.49 0 0 1-.16.19 2 2 0 0 1-.47.32l-.25.1-.27.06a2.32 2.32 0 0 1-.63 0 1.47 1.47 0 0 0 .62-.08 1.51 1.51 0 0 1-.35 0h-.35l-.25-.06h-.25l-.86-.33a4 4 0 0 0-.4 0h-1.21s-.53 0-.75.07l-.55.08c-.65.11-1.21.23-1.72.35-1 .24-1.89.48-2.79.71s-1.82.46-2.88.69l-.82.16-.88.15-.47.06-.79.1h-.19l-.15.06-.31.13-.39.16c.64-.23.58-.14-.23.24-.41.19-1 .45-1.82.76a29.76 29.76 0 0 1-3.25 1c-.49.11-.82.19-1.06.22l-.42.07c-.12 0 0 0 0 0l-.78.13h-.6c-.24 0-.52.07-.85.09a14.22 14.22 0 0 1-2.57 0 15.93 15.93 0 0 0 3.16-.13 32.22 32.22 0 0 0 4.25-.89c.28-.11 1.48-.54 1.72-.68-.9.3-1.94.64-3.1.93a22.4 22.4 0 0 1-3.68.64h-1.78s-.56 0-.81-.07l-.71-.09a1 1 0 0 0-.22 0h-.63a23.62 23.62 0 0 0-3.25.31c.55-.08 1.15-.16 1.73-.21.43 0 .82-.06 1.19-.07h.41-.57l-1.08.08-1 .12-.94.15c-1.21.22-2.25.48-3.24.75s-1.91.55-2.83.81l-.69.19-.7.17c-.23 0-.47.11-.7.14a1.48 1.48 0 0 1-.21 0h-.37l-1.14.05h.14l1-.08h.39l.4-.08h-1.69a21.75 21.75 0 0 0-2.24.3 11.23 11.23 0 0 0-1.1.26 5.17 5.17 0 0 0-.53.19 2 2 0 0 0-.48.27c0 .05-.12.11-.12.16v.26h-.23v-.15c0-.17.21-.39.65-.58a9.25 9.25 0 0 1 2-.54h-.16a9.45 9.45 0 0 0-1.81.49 1.6 1.6 0 0 0-.69.44.63.63 0 0 0 0 .13v.11a.6.6 0 0 1 0 .1h-.85c-.39 0-.8.08-1.15.14s-.67.14-1 .22-.55.16-.77.26c-.52.2-.76.35-1.11.49s-.68.29-1 .42-1.58.48-2.74.74-2.12.44-1.39.27L886 107l-1.51.31-1.37.39-5.66 1.56-1.49.43-.74.22-.77.24a2.1 2.1 0 0 0-.28.11l-.14.06-.27.12-.58.22a11.15 11.15 0 0 1-1.26.38l-.68.14-.37.05c-.23 0-.52.07-.74.12h-.25l-.27.1-.37.17-.53.23a6.64 6.64 0 0 1-1.14.34 5.09 5.09 0 0 1-.56.08h-1.55a.59.59 0 0 0-.15.09c-.15.13-.4.34-.75.62l-.44.29-.32.16-.18.09-.22.08a9.66 9.66 0 0 1-2.44.53c-1 .11-2.2.17-3.46.3l-.94.11-.93.14-.93.18h-.46l-.31.09c-.85.24-1.77.45-2.77.64-2 .4-4.32.74-6.58 1.28l-.83.21-.81.23c-.26.08-.54.16-.78.25l-.38.13-.2.07-.25.1-.55.24-.61.2c-.23.05-.44.12-.68.16s-.48.09-.76.12h-3.12c-.34 0-.66 0-1 .08l-.53.06-.51.09-.49.1-.44.12a5.81 5.81 0 0 0-.76.25 4.39 4.39 0 0 0-1.28.77l.24-.12a5.15 5.15 0 0 1 .67-.37 3.75 3.75 0 0 1 .34-.16l.3-.1c.14 0 .16 0 0 .06l-.19.09-.21.13a4.17 4.17 0 0 0-.57.39l-.14.11-.06.06h-.37l-.39.06h-.45c-.34 0-.62 0-1.37.07a5.76 5.76 0 0 0-1.2.16h-1.69l-.65.18-.47.13a5.14 5.14 0 0 1-.72.13h-.62l-1.6-.17-.32.27.33-.27 1.15.12.56.06h.73a8.53 8.53 0 0 0 1-.21l.6-.16h.2l.29-.06h1a1.21 1.21 0 0 0-.48.25l-.42.07-.24.06-.34.09c-.38.1-.62.16-.8.19-.35.07-.43.06-.45 0s0 0-.06 0h-1.5l-1-.1a1.55 1.55 0 0 0-.33.26l-.38.73-.33.28-.22.16a4.2 4.2 0 0 1-1.11.55 4.85 4.85 0 0 1-1.58.23 17 17 0 0 1-2.36-.21c-.87-.13-1.78-.29-2.77-.45h-.49l-.58-.09-.58-.08c-.18 0-.36.07-.54.1l-.54.11-.25.05h-.17l-.67.1a45.13 45.13 0 0 1-6.32.28c1.63 0 3 0 4.3-.12l.94-.08.9-.1c.31 0 .58-.09.87-.13h.3l.39-.08.53-.11-1.06.2h-.41l-.37.06-.78.09-.81.07c-1.1.08-2.26.1-3.47.11a34.92 34.92 0 0 0 5.33-.43h.25l.47-.09 1-.2h.5l.49.07.92.14 1.64.26a4.76 4.76 0 0 0 1 .14c-.2 0-.89-.18-2.54-.48l-.92-.1-.82-.1h-.12a.26.26 0 0 0-.12 0h-.23l-.49.11-.54.11-.26.05h-.14l-.61.11-.72.1c-.27 0-.53.06-.84.08-1.19.1-2.68.14-4.4.15h-2.73l-1.47.05h-1.37c-1.91.1-3.74.27-5.39.41s-3.17.27-4.36.3h-2.07l-.5.2-.7.28-.43.16-.24.09-.12.05a.42.42 0 0 0-.12.07 2 2 0 0 1-.43 0 .38.38 0 0 1-.29-.1.17.17 0 0 1 0-.14v-.07a.7.7 0 0 0-.18-.13 2 2 0 0 0-.45-.14h-.56a5 5 0 0 0-.67 0h-.56l-.34.06.59-.1h1a3.43 3.43 0 0 1 .68.11l.26.09.13.08a.29.29 0 0 1 .11.1s0 .08.15.14a.14.14 0 0 1-.09-.13v-.06l-.05-.07a1 1 0 0 0-.21-.13 2.32 2.32 0 0 0-.46-.14 4.3 4.3 0 0 0-.55-.07h-.87c-.42 0-.56.08-.75.12l-.45.09-.7.13a8.89 8.89 0 0 1-1 .12h-.58l-.51-.06h-2.16l-.83-.08a9 9 0 0 0-1.73 0 2.38 2.38 0 0 0-.76.19.81.81 0 0 0-.38.32.66.66 0 0 0-.08.2.64.64 0 0 1-.05.18 1.66 1.66 0 0 1-.26.25 4.51 4.51 0 0 1-.94.56 5.74 5.74 0 0 1-1.56.46h-.32a8.47 8.47 0 0 0-1.68.25c-.44.11-.77.22-1.07.32-.58.2-1 .37-1.25.48-.52.22-.56.2.31-.2-1 .45-1.86.91-2.7 1.37l-2.42 1.38-.77.42c-.15.08-.21.1-.18.08l.33-.22.16-.09-.24.14-.44.26-.46.24a17.13 17.13 0 0 1-2.23.88c-.84.27-1.79.55-2.67.87a10.16 10.16 0 0 0-2.18 1.09l-.17.14-.09.08-.14.07-.3.16-1.39.68-.58.27-.43.19h-.11a.23.23 0 0 0 0-.05.13.13 0 0 0-.09-.09h-.32a3.78 3.78 0 0 0-.5 0l-.5.1-1.1.24.55-.14.55-.13.34-.07a4.38 4.38 0 0 1 .48-.06h.51-.3a4.16 4.16 0 0 0-.48 0l-.5.09-.69.17-.62.15-.31.07-.5.1-.4.22c-.09 0-.19.08-.28.12l-.31.08a3.23 3.23 0 0 1-.35 0 18.14 18.14 0 0 1-2.14-.07c-.64-.05-1-.07-.93-.08a9.05 9.05 0 0 1 .91 0c.53 0 1.28.08 1.86.07h.38a2.2 2.2 0 0 0 .3-.06 2.1 2.1 0 0 0 .32-.11h.08l.1-.06.3-.17.34-.07.29-.06.39-.09.83-.2.52-.11.39-.06h.78a.14.14 0 0 1 .1.05.11.11 0 0 0-.06 0h-.09a4.9 4.9 0 0 0-.52 0 7.57 7.57 0 0 0-.86.12l-.49.1-.79.17-.35.07-.63.12-.4.21h-.18a1.21 1.21 0 0 1-.16.06h-1.15c-.57 0-1.32-.09-2.33-.11h-1.7s-.6.06-.92.1-.59.1-.89.16h-.07a14 14 0 0 1-3.33.4h-2.66s-2.16 0-3.41.12c2.82-.25 5.61-.08 7.57-.3-.48 0-1 0-1.62.06h-2a45.87 45.87 0 0 0-4.92.2l-.67.08h-4.03c-2 0-4.17.17-6.4.4.54 0 1.93-.19 3.64-.27s3.68-.11 5.28-.07h2.35c.13 0 0 0-.42.08l-.38.06h-1.31c-1.31 0-2.84 0-4.64.08s-3.86.28-6.12.63a5.33 5.33 0 0 0-.86.08l-.92.14-.56.1h-3.54c-1.36.08-2.76.22-4.16.39l.28-.14c-1.53.19-2.57.34-3.39.45l-1.89.24-.72.08-.72.07-.85.07h-1.09l-.43.08a51.41 51.41 0 0 1-9.08 1.15c-1.21.08-2 .06-2.46.06h-.67 1.44a10.32 10.32 0 0 1 1.19 0c-.11 0-.46 0-1.14.06h-1.27s-.54 0-.83-.05h-.8l-.44-.06-.63-.09h-.16a.68.68 0 0 0-.14 0l-.27.06-1.05.24c-.45.08-.87.17-1.33.23-.9.13-1.83.22-2.79.27-1.93.1-4 .06-6.2.14h-.85l-.86.06c-.58 0-1.22.1-1.79.21-1.09.19-2 .42-3 .66s-1.86.49-2.85.69a12.11 12.11 0 0 1-1.47.21h-.67a5 5 0 0 1-.63-.07l-.38-.1-.17-.05-.25-.1a4.27 4.27 0 0 1-.41-.19l-.31-.16-.38-.21h-.13c-.12 0-.08 0 0 0h.1l.13.06.33.16c.25.11.53.26.79.35l.17.07h.22-.05l-.23-.1c-.5-.19-.94-.45-1.37-.62l-1.42.46a3.75 3.75 0 0 1-.84.15 8.8 8.8 0 0 1-1.61-.09l-.91-.15a1.48 1.48 0 0 1 .29 0l-.67-.08-.77-.05a7.17 7.17 0 0 0-1.14 0 3.65 3.65 0 0 0-1 .23l-.2.09a.85.85 0 0 0-.16.09 1.48 1.48 0 0 0-.24.21h-1.36a7.55 7.55 0 0 0-.81 0h-.3l-.31.07a.8.8 0 0 0-.36.19.23.23 0 0 0-.06.09.22.22 0 0 0 0 .08v.14c.07.13 0 .45-.24.88a2.73 2.73 0 0 1-.64.69 2 2 0 0 1-.56.3h-.27l-.53-.15-.48.16a6.92 6.92 0 0 0-1.3.6c-.36.21-.69.42-1 .64-.64.44-1.23.9-1.82 1.36l-1.72 1.37L630 151c-1.06.69.3-.37-.11-.17l-4.57 3.46-1.5 1.15-.93.72-.56.43-.44.35h-.83l-9-.46c6.65.37-1.92.09-9.43-.16l1 .06-2.59-.11 1.58.05-1.34-.08h-1.75l-5.93-.24h3.41l4.27.25a49.25 49.25 0 0 0 5.17 0l-3.92-.14h.92s-1.65-.06-3.62-.12l-2.67-.23h-.68l-15.58-.74-10.37-.33-5.41-.17-2.85-.09-3.2-.11-4.37 2.27-5 2.56c2.24-1.26.18-.34.05-.46 1.1-.47 2.42-1.12 3.91-1.87l5.21-2.66 4 .16 3.55.15c-4.79-.22-3.72-.22-2.49-.18l-5.12-.19-6.8 3.49a42.43 42.43 0 0 0-4.58 2.09c.61-.22.39-.06-.34.34l-1.43.75-2.66 1.36h13.08c.21 0-.09.05-1.47.07h-8.46 6.32c1.66 0 3.12 0 4.57-.06 2.9-.05 5.78-.1 10.23-.05h-3.87 13.42-2c13.3 0 40.47 0 42.46-.14.13 0-1.74.17-2.55.19l16.35-.32h7.46c.95.13 2.46.28-5.18.32h13.76c-2.16 0-5.38-.17-2.43-.18 8 .13 5.69.07 15.24.18-2.57 0 .94-.21 5.84-.2-.8 0 .43.18-1.44.2l12.13-.17c-2.18 0 .25.15 2.89.2h14.4-5.4c14.38 0 14.2-.26 28.46-.25-1.73 0-4.26.23 3 .26 1.78-.05 5.85-.18 11.19-.29h16.08c-6.86.12-14.71.25-20 .31 5.38 0 1.5.06 9.55.06 2.85.05-4.39.08-6.76.08h18.76c-.83-.11 14.34-.11 13.63-.2l-20.37.11c-.83-.11 11.78-.31 25.07-.29 3.38 0-2.53.19-2.25.23 1.72 0 12.61-.07 13.84 0l-5.64.06c7.4 0 12.07-.14 21 0 3.07 0 9.16.14 9.69.08-3-.07-4.54-.24-4.59-.39h10.48-.45 2-.07 10.7c1.07.09-8.18.21-4.41.28.19 0 3-.07 4.14-.08 3.22 0-1.33.09 5.67.08 1.17-.11 14.24 0 3.31-.09h15.32c-1.69 0 2-.14 6.7-.2h9.27c14 0 21.58.06 34.67.06 1.21 0 7.52.06 4.83.11 1.88 0 3.61-.06 7.65-.06 7.82.1-9 0-3 .13.51-.06 10.45-.09 16.2-.13-1.77-.1-13.29 0-19.05 0a30.27 30.27 0 0 1 3.31-.14h42c9.42 0 33.43 0 47.3.06 2 0 5 0 5.75-.06h61.51c-.25 0-2.48 0-.49.06.18 0 1.2 0 2.74-.06h205.01a74.33 74.33 0 0 1 9.2 0c2.93-.27 5.73.44 8.39 0 2.66-.19 5.17.6 7.53 0 2.36.48 4.58-.17 6.64 0 2.06-.54 4 .63 5.72 0a9.77 9.77 0 0 0 4.76 0 21 21 0 0 1 3.76 0 5.7 5.7 0 0 0 1.32-.26 1.27 1.27 0 0 1 1.4.26.91.91 0 0 1 1.16 0h-.36.62-.37.39-.96s.36 0 0 0h.06-.19c.07 0-.18 0 0 0h-.19.49s-.06 0 0 0c-.48 0 .36 0 0 0 .08 0 .05 0 0 0h.07-.23.42-.27.36a2 2 0 0 1-.24 0h.2s-.3 0 0 0h-.32.16-.4.49c-.06 0-.08 0 0 0h-.14.16-.4.22-.28.34-.18.21-.11.11-.2c-.14 0 .06 0 0 0h.07a1.07 1.07 0 0 0 .24 0h.09-.22.24-.07c-.32.08.35-.07-.13 0l.25-.06h-.19c-.1 0 .15 0 0 0l.25-.06h-.4c.44-.1 0 0 .29-.06h-.19.12l-.25.06h-.06l.36-.09c.27-.06-.49.12-.39.1h.2l-.21.05.28-.06c-.07 0 0 0 0 0h-.19c-.09 0-.06 0 0 0h.05-.18.18l-.24.06c-.09 0 .31-.07.2 0h.08s-.22.06 0 0l-.27.07.37-.09h.19l-.66.1h-.08l.83-.13c.21 0-.11 0 0 0h.13-.38.57-.17.3-.47c-.37.05.41 0-.15 0a1.31 1.31 0 0 0 .36 0h.32s-.61.08-.58.09c-.12 0 .18 0 0 0h-.16.21-.05.23-.21.16-.29.1a.06.06 0 0 0 0 .05.84.84 0 0 0 .29.08l-.24-.07h.25a.72.72 0 0 1 .27.06h.09l.23.06a2.84 2.84 0 0 0 .73 0 2.18 2.18 0 0 0 .48-.09l.15-.06h-.33.22a.77.77 0 0 1 .22 0h-.09a.13.13 0 0 0 0-.08.78.78 0 0 1-.24 0c.29 0-.07 0-.16-.06h.04-.09.32-.08.26-.49.6a2.69 2.69 0 0 1 .27 0s0-.06-.1-.09h-.18.35-.57.86c-.7.61-.1.6-.77.59zm-.12 0zm0 0zM898.92 104zm.08 0zm0 0zm.06.06h.06-.07zm0 0zm-.14 0zm-.13 0zm128.62-2.42zm0 0zm0 0zm0 0zm0 0zm0 0zm.06 0zm.06 0zm-.08 0zm0 0zm0 0zm.28-.12zm0 0zm-.22.1zm-.06 0zm0 0zm0 0zm0 0zm0 0zm0 0zm-200.22 20.16zm200.47-20.34zm.13-.11zm-.22-.16h.06v.08a.67.67 0 0 1 0 .09 1.41 1.41 0 0 1-.07-.17zm-.86-.35l.43.31c.12.09.25.18.37.25a.51.51 0 0 1 0 .1h-.09c-.33-.21-.61-.47-.94-.73a6 6 0 0 0-1.25-.78 6.73 6.73 0 0 1 1.48.85zm-77.91-6.64s.12.07.13.09h-.11a.36.36 0 0 1-.02-.09zM899.15 104zm0 0zm-.23-.07zm-175.76 33.24h.31a.84.84 0 0 0 .2 0h.46c.77-.1 1.63-.19 2.48-.23 1.7-.09 3.21-.07 4-.07-1.2.06-2.34.07-3.68.12-.67 0-1.39.07-2.18.15l-.6.06-.47.06a1.21 1.21 0 0 1-.28 0h-.21zm-130 18.64c-2-.08-4.36-.18-6.91-.31 1.59.03 4.07.15 6.88.3zm726.27 6.2zm.63.16zm0 0h.08-.07.19-.22zm-.13 0zm.05-.07zm0 0zm.1 0zm0 0zm2.19-.13zm-.51.13zm-.17 0zm-.14 0zm.27 0zm0 0zm-.41-.16zm-.07 0zm-.06 0zm.58.16zm-.21-.11zm0 0zm-.21-.05zm-.08 0zm-.07 0zm0 0zm-.08 0zm.52 0zm0 0zm.07 0zm-.15 0zm0 0zm-.06 0zm.35 0zm-.1 0zm-1.26 0zm.34-.06zm-.35 0zm0 0zm-.15.13zm-.32.06zm0 0zm.36 0h-.12zm-.41.16zm-.07 0h.14zm1.87 0zm.45-.09zm.14 0h-.06s.06.07-.08.07zm-.46-.08zm.45 0zm-2.16-.19zm.32.06zm0 0zm-.35.05zm-.36 0h.23-.19zm.06 0zm.06 0zm0 0h-.15zm-.16 0zm-.06 0zm-.07 0zm0 0zm.06 0zm0 0zm.12 0zm.08 0zm.05 0zm0 0zm0 0zm0 0zm0 0zm0 0zm-.12 0zm-.09 0h.14-.15.07-.08zm0 0h.08-.07zm.84 0zm.08.1h-.23c-.1 0 .08 0 0 0h-.13.19-.07.09c.04.36.16.35.05.37zm1.21-.18zm.22.11zm.32 0h-.26.17-.15.45-.21zm.21 0h-.18.21zm-.1-.06h.06-.09z" class="d2d652c0-3ebc-486c-9325-e8be6b0ec8b3"/>
      <path d="M885.93 158.21c-4.78-2.33-9.43-4.48-13-6.13a57.32 57.32 0 0 1-11.4-5.22c-3.6-.9-7-3.58-10.29-5.3-3.28-1.92-6.43-3.19-9.51-5.89-3.83-.65-7.4-7.49-10.81-8.18-3.41-2.28-6.65-7.14-9.83-8.42-3.17-5.49-6.27-10.27-9.38-8.59-3.11.24-6.25-1.75-9.48-8.67-3.24-2.44-6.59-13.61-10.13-8.67-2.48-8-5.14-9-8.33-4.77-3.19-6-6.91-1.15-11.52-2.26-6.74 3.15-11 .27-14.71 3.85-3.72 5.17-6.91-2.59-11.52 5.86-7.09.92-12.76-1.82-17.39.22-4.62-3.42-8.19-2.79-11.08-7.59-2.89 1.26-5.09-10.41-7-8.71-1.77-1.49-2.3-16.51-3.28-6.7-1-1.46-2.39-2.28-5.94-5.69a139.36 139.36 0 0 0-19.33-.27c-5.85.67-10.81 2.65-14 7-3.19 2.78-6.69-6.93-10.55 7.66-3.86-1.59-8.07-.6-12.67 7.95-4.61 7.61-9.62-1.25-15.07 6-5.45 6.17-11.35 5.18-17.73 1.83l-.71-.67a26.91 26.91 0 0 0-5.5 3.68c-1.06-7-1.6 7.25-2.3 4.69-1.6 2.43-3 9.58-4.29 8.59-1.27.5-2.4 7.27-3.42 8.65-1 1.54-1.93 7.13-2.76 8.65-.83 2.88-1.58 5.74-2.29 8.59" class="d2d652c0-3ebc-486c-9325-e8be6b0ec8b3"/>
    </g>
  </g>
</svg>
